<svg xmlns="http://www.w3.org/2000/svg" width="1060" height="951" viewBox="0 0 1060 951" version="1.1"><path d="M 513.762 80.878 C 501.732 84.858, 493.378 92.283, 487.746 104 C 485.180 109.340, 484.545 112.059, 484.189 119.238 C 483.943 124.207, 484.267 130.002, 484.939 132.673 L 486.122 137.370 471.620 151.872 L 457.118 166.374 443.124 152.762 C 426.845 136.926, 420.731 131.903, 412.972 127.986 C 403.492 123.200, 395.956 121.731, 383.500 122.240 C 374.166 122.622, 371.289 123.167, 364.500 125.843 C 360.100 127.577, 353.963 130.909, 350.863 133.248 C 341.574 140.255, 151.545 329.432, 147.082 336.115 C 138.696 348.673, 135.666 363.298, 138.318 378.409 C 140.324 389.833, 144.292 397.846, 152.450 406.944 C 160.730 416.178, 170.622 425, 172.696 425 C 173.587 425, 179.083 420.283, 184.908 414.518 L 195.500 404.035 185.308 394.264 C 172.355 381.847, 169.513 376.457, 170.214 365.639 C 170.469 361.712, 171.392 357.150, 172.266 355.500 C 173.140 353.850, 195.150 331.343, 221.177 305.485 C 247.205 279.627, 291.225 235.889, 319 208.289 C 375.260 152.383, 373.771 153.586, 386.634 153.644 C 392.638 153.670, 394.578 154.136, 398.890 156.588 C 403.459 159.186, 458.523 211.782, 493.304 246.772 L 504.109 257.642 495.304 266.144 C 490.462 270.820, 477.541 283.276, 466.590 293.823 L 446.680 313 399.757 313 C 373.949 313, 352.983 312.644, 353.167 312.208 C 353.350 311.772, 365.781 299.510, 380.791 284.958 C 395.801 270.406, 416.677 250.167, 427.180 239.982 L 446.278 221.464 434.639 210.608 L 422.999 199.752 390.278 231.626 C 360.992 260.154, 288.809 331.538, 188.721 430.954 C 156.057 463.399, 153.745 465.481, 150.721 465.186 C 148.949 465.014, 142.302 464.789, 135.948 464.686 C 124.467 464.501, 124.350 464.523, 116.858 468.226 C 102.817 475.165, 94.072 488.049, 93.202 503.077 C 92.420 516.587, 96.009 527.013, 104.512 535.927 C 111.573 543.330, 120.292 547.847, 130.304 549.290 C 136.841 550.231, 138.828 550.107, 146.139 548.300 L 154.500 546.234 168.734 560.307 L 182.969 574.380 166.137 590.940 C 153.113 603.753, 148.597 608.878, 146.177 613.593 C 137.983 629.557, 137.931 648.445, 146.033 665.851 C 149.670 673.663, 156.196 680.537, 184.970 706.859 C 196.778 717.662, 218.378 737.526, 232.970 751.003 C 247.561 764.480, 271.650 786.601, 286.500 800.161 C 301.350 813.721, 320.925 831.663, 330 840.032 C 361.357 868.950, 368.836 872.683, 393.500 871.729 C 407.325 871.195, 414.997 869.132, 424.791 863.318 C 431.622 859.263, 450 842.643, 450 840.521 C 450 839.802, 444.991 834.683, 438.868 829.146 L 427.736 819.080 418.654 827.554 C 406.579 838.822, 403.055 840.501, 391.500 840.495 C 384.391 840.491, 381.513 840.035, 377.802 838.324 C 373.220 836.212, 347.328 813.052, 306.492 774.540 C 297.137 765.718, 276.212 746.393, 259.992 731.596 C 171.059 650.466, 176.827 656.102, 174.031 647.604 C 172.116 641.786, 173.239 632.990, 176.655 627.037 C 178.569 623.703, 195.187 606.682, 227.421 575.040 C 253.777 549.168, 275.623 528, 275.968 528 C 276.756 528, 315.693 564.927, 326.761 576.171 L 335.021 584.563 334.761 628.226 L 334.500 671.889 315.500 654.310 C 299.141 639.174, 285.407 626.353, 247.324 590.666 L 240.032 583.832 229.016 594.574 C 222.957 600.483, 218 605.664, 218 606.088 C 218 606.836, 246.037 633.439, 277.980 663 C 286.597 670.975, 306.215 689.202, 321.574 703.503 C 336.933 717.805, 363.672 742.330, 380.993 758.003 C 431.561 803.760, 487.511 856.516, 487.486 858.418 C 487.478 859.013, 486.840 862.783, 486.068 866.795 C 483.519 880.037, 487.646 892.815, 497.716 902.863 C 522.896 927.987, 565.410 914.553, 571.195 879.645 C 572.136 873.962, 572.034 871.573, 570.555 864.692 L 568.796 856.503 582.148 843.792 C 589.491 836.800, 595.793 831.175, 596.151 831.290 C 596.510 831.406, 603.482 837.768, 611.645 845.430 C 635.821 868.118, 642.821 871.472, 666 871.473 C 679.530 871.474, 683.456 870.775, 693.064 866.656 C 699.180 864.035, 705.805 858.398, 738.636 827.887 C 756.161 811.600, 779.523 790, 790.552 779.887 C 809.616 762.406, 836.666 737.461, 876.500 700.628 C 886.400 691.474, 896.828 681.235, 899.673 677.875 C 918.944 655.117, 919.932 625.253, 902.132 603.485 C 897.433 597.739, 882.081 584, 880.358 584 C 878.688 584, 859 602.941, 859 604.548 C 859 605.287, 863.307 610.213, 868.570 615.493 C 873.965 620.906, 878.972 626.928, 880.048 629.297 C 883.981 637.960, 881.833 649.500, 874.801 657.488 C 870.103 662.826, 842.468 688.703, 790.971 735.986 C 770.912 754.403, 750.225 773.533, 745 778.496 C 739.775 783.459, 726.500 795.901, 715.500 806.145 C 678.404 840.689, 678.720 840.470, 666 840.488 C 658.512 840.499, 656.888 840.161, 652.359 837.650 C 649.531 836.083, 638.731 826.901, 628.359 817.246 C 617.986 807.590, 599.150 790.133, 586.500 778.450 C 573.850 766.768, 560.679 754.330, 557.231 750.809 L 550.962 744.408 579.231 717.760 L 607.500 691.112 653.333 691.056 C 682.559 691.020, 699.046 691.352, 698.833 691.971 C 698.650 692.505, 684.325 706.073, 667 722.123 C 620.778 764.941, 606.886 778.168, 607.210 779.048 C 607.370 779.481, 612.409 784.357, 618.408 789.884 L 629.316 799.934 635.434 794.217 C 656.079 774.924, 714.724 720.370, 727.041 709 C 771 668.421, 815.089 626.638, 885.231 559.082 L 899.163 545.664 903.861 547.353 C 927.089 555.706, 953.788 540.592, 958.891 516.201 C 963.199 495.613, 953.840 476.575, 935 467.597 C 928.803 464.645, 927.963 464.508, 917 464.669 C 910.675 464.762, 904.375 464.987, 903 465.169 C 900.917 465.445, 898 462.942, 885.526 450.180 L 870.552 434.860 888.262 417.680 C 904.516 401.912, 906.266 399.872, 909.547 392.856 C 914.777 381.671, 916.652 370.964, 915.282 360.113 C 913.904 349.208, 910.344 340.329, 903.916 331.763 C 899.382 325.721, 841.582 268.659, 737 166.980 C 705.627 136.477, 699.582 131.042, 693.965 128.290 C 684.577 123.688, 677.029 122, 665.842 122 C 647.577 122, 634.475 128.038, 617.360 144.342 C 608.945 152.359, 607.200 154.505, 607.953 155.912 C 608.462 156.863, 613.619 162.030, 619.413 167.396 L 629.948 177.151 639.361 168.184 C 652.629 155.544, 656.407 153.500, 666.500 153.500 C 673.353 153.500, 675.145 153.880, 679 156.148 C 681.475 157.605, 718.375 192.900, 761 234.582 C 862.475 333.812, 879.237 350.621, 881.579 355.500 C 884.448 361.475, 884.199 373.045, 881.073 378.993 C 878.762 383.389, 861.826 400.380, 802.079 458.238 C 783.006 476.708, 777.312 481.695, 776.079 481.006 C 775.211 480.522, 762.008 467.602, 746.740 452.296 L 718.980 424.467 719.240 377.839 L 719.500 331.211 766.500 377.561 C 792.350 403.053, 813.996 423.931, 814.601 423.955 C 815.846 424.006, 837 404.247, 837 403.034 C 837 402.276, 738.345 305.085, 631.500 200.584 C 602.900 172.612, 576.711 146.975, 573.301 143.613 L 567.102 137.500 568.535 131.500 C 572.106 116.551, 568.310 103.571, 556.806 91.394 C 549.575 83.740, 540.384 79.813, 528.601 79.342 C 521.597 79.063, 518.178 79.417, 513.762 80.878 M 519.500 104.821 C 503.756 112.284, 506.685 134.960, 523.851 138.510 C 533.816 140.571, 545.068 130.767, 544.978 120.101 C 544.879 108.387, 530.355 99.676, 519.500 104.821 M 493.275 174.250 L 479.077 188.500 502.566 211.816 L 526.055 235.131 529.173 232.508 C 530.887 231.066, 541.731 220.731, 553.271 209.542 C 572.556 190.843, 574.139 189.049, 572.854 187.349 C 572.085 186.332, 565.560 179.728, 558.354 172.674 L 545.252 159.848 539.944 161.424 C 533.242 163.414, 519.828 163.458, 513.409 161.511 C 510.709 160.692, 508.269 160.017, 507.987 160.011 C 507.705 160.005, 501.085 166.412, 493.275 174.250 M 572.796 233.503 L 549.091 256.889 588.796 295.769 C 610.633 317.153, 630.638 336.585, 633.250 338.952 C 635.862 341.318, 638 343.647, 638 344.127 C 638 344.621, 568.801 345, 478.857 345 L 319.714 345 273.607 390.742 C 248.248 415.900, 215.896 447.972, 201.714 462.014 L 175.928 487.544 177.511 492.022 C 180.071 499.261, 180.520 510.471, 178.552 518 L 176.852 524.500 189.330 536.530 C 196.193 543.146, 202.864 549.106, 204.154 549.774 C 206.380 550.926, 207.680 549.821, 229.627 528.111 L 252.754 505.233 235.377 487.877 C 225.820 478.332, 218 469.830, 218 468.984 C 218 467.603, 223.484 461.903, 235.690 450.593 L 239.881 446.710 257.885 464.469 L 275.888 482.227 320.492 438.864 C 345.024 415.014, 365.518 395.352, 366.033 395.172 C 367.219 394.756, 367.780 493.530, 367.269 612.500 C 366.959 684.709, 367.133 701.808, 368.193 703.132 C 370.343 705.816, 450.626 779.567, 457.077 784.784 L 459.901 787.068 471.201 776.855 C 492.279 757.805, 504 746.729, 504 745.860 C 504 745.384, 500.532 741.733, 496.294 737.747 C 478.537 721.047, 429.871 674.884, 422.004 667.278 L 413.500 659.056 573.774 659.028 L 734.047 659 778.274 617.254 C 802.598 594.293, 832.625 565.795, 845 553.924 C 857.375 542.053, 869.467 530.482, 871.872 528.209 C 875.071 525.186, 876.060 523.598, 875.558 522.291 C 872.511 514.350, 872.395 500.315, 875.308 492.103 L 876.867 487.706 862.694 472.853 C 854.899 464.684, 848.141 458, 847.678 458 C 847.215 458, 839.335 465.154, 830.168 473.898 C 821 482.642, 810.237 492.607, 806.250 496.044 C 802.263 499.480, 799 502.583, 799 502.938 C 799 503.293, 806.919 511.439, 816.597 521.040 C 826.276 530.640, 834.656 539.357, 835.219 540.410 C 836.102 542.059, 834.791 543.760, 825.780 552.662 C 820.025 558.348, 814.818 563, 814.208 563 C 813.598 563, 804.895 554.915, 794.868 545.033 L 776.637 527.066 771.568 531.744 C 768.781 534.317, 749.025 553.540, 727.666 574.461 C 706.307 595.383, 688.420 612.650, 687.916 612.833 C 687.364 613.034, 687 550.868, 687 456.305 L 687 299.444 664.250 276.993 C 651.737 264.645, 631.375 244.547, 619 232.330 L 596.500 210.118 572.796 233.503 M 509.730 295.733 C 500.541 304.875, 493.173 312.507, 493.358 312.691 C 493.543 312.876, 508.561 312.909, 526.732 312.764 L 559.771 312.500 554.135 306.447 C 551.036 303.117, 543.536 295.605, 537.469 289.752 L 526.438 279.110 509.730 295.733 M 430.245 503.250 L 430.500 598.500 449 598.823 C 459.175 599, 502.712 598.833, 545.750 598.452 L 624 597.758 624 502.879 L 624 408 526.995 408 L 429.990 408 430.245 503.250 M 719.008 503.829 L 719 538.158 736 521.883 C 745.350 512.932, 753 505.161, 753 504.613 C 753 504.065, 745.354 495.941, 736.008 486.559 L 719.016 469.500 719.008 503.829 M 316.651 487.092 C 307.493 495.943, 300 503.718, 300 504.370 C 300 505.516, 333.248 538, 334.421 538 C 334.739 538, 335 522.925, 335 504.500 C 335 486.075, 334.618 471, 334.151 471 C 333.684 471, 325.809 478.242, 316.651 487.092 M 909 490.686 C 904.692 492.890, 903.012 494.467, 901.250 497.962 C 897.345 505.706, 898.762 514.098, 904.839 519.211 C 916.778 529.257, 934 521.660, 934 506.348 C 934 500.194, 931.452 495.311, 926.397 491.775 C 920.424 487.598, 915.623 487.298, 909 490.686 M 130.030 490.113 C 126.064 491.695, 121.118 495.870, 119.499 499.002 C 116.619 504.572, 118.067 512.883, 122.871 518.356 C 125.564 521.425, 131.652 524, 136.210 523.998 C 141.718 523.996, 146.563 521.495, 150.429 516.657 C 153.117 513.293, 153.500 512.038, 153.500 506.584 C 153.500 499.241, 150.804 494.382, 144.881 491.053 C 140.962 488.851, 134.256 488.426, 130.030 490.113 M 494 691.901 C 494 693.024, 525.729 723, 526.918 723 C 528.544 723, 561 693.381, 561 691.898 C 561 691.385, 546.629 691, 527.500 691 C 508.281 691, 494 691.384, 494 691.901 M 505.618 787.652 C 493.728 798.992, 484 808.608, 484 809.022 C 484 809.435, 489.838 815.264, 496.974 821.975 L 509.948 834.178 515.164 832.445 C 521.979 830.182, 535.102 830.180, 540.516 832.442 C 542.694 833.352, 545.382 833.839, 546.488 833.524 C 547.595 833.209, 554.059 827.636, 560.854 821.140 L 573.208 809.328 551.499 788.914 C 539.560 777.686, 529.216 768.170, 528.514 767.766 C 527.674 767.284, 519.830 774.096, 505.618 787.652 M 520.411 857.891 C 513.568 862.064, 510.095 869.924, 511.988 876.955 C 517.337 896.818, 546 892.801, 546 872.188 C 546 866.500, 543.333 861.815, 538.078 858.274 C 533.696 855.321, 524.937 855.131, 520.411 857.891" stroke="none" fill="#328de8" fill-rule="evenodd"/><path d="M 0 475.501 L 0 951.002 530.250 950.751 L 1060.500 950.500 1060.751 475.250 L 1061.002 0 530.501 0 L 0 0 0 475.501 M 0.496 476 C 0.496 737.525, 0.610 844.512, 0.750 713.750 C 0.890 582.987, 0.890 369.012, 0.750 238.250 C 0.610 107.487, 0.496 214.475, 0.496 476 M 513.762 80.878 C 501.732 84.858, 493.378 92.283, 487.746 104 C 485.180 109.340, 484.545 112.059, 484.189 119.238 C 483.943 124.207, 484.267 130.002, 484.939 132.673 L 486.122 137.370 471.620 151.872 L 457.118 166.374 443.124 152.762 C 426.845 136.926, 420.731 131.903, 412.972 127.986 C 403.492 123.200, 395.956 121.731, 383.500 122.240 C 374.166 122.622, 371.289 123.167, 364.500 125.843 C 360.100 127.577, 353.963 130.909, 350.863 133.248 C 341.574 140.255, 151.545 329.432, 147.082 336.115 C 138.696 348.673, 135.666 363.298, 138.318 378.409 C 140.324 389.833, 144.292 397.846, 152.450 406.944 C 160.730 416.178, 170.622 425, 172.696 425 C 173.587 425, 179.083 420.283, 184.908 414.518 L 195.500 404.035 185.308 394.264 C 172.355 381.847, 169.513 376.457, 170.214 365.639 C 170.469 361.712, 171.392 357.150, 172.266 355.500 C 173.140 353.850, 195.150 331.343, 221.177 305.485 C 247.205 279.627, 291.225 235.889, 319 208.289 C 375.260 152.383, 373.771 153.586, 386.634 153.644 C 392.638 153.670, 394.578 154.136, 398.890 156.588 C 403.459 159.186, 458.523 211.782, 493.304 246.772 L 504.109 257.642 495.304 266.144 C 490.462 270.820, 477.541 283.276, 466.590 293.823 L 446.680 313 399.757 313 C 373.949 313, 352.983 312.644, 353.167 312.208 C 353.350 311.772, 365.781 299.510, 380.791 284.958 C 395.801 270.406, 416.677 250.167, 427.180 239.982 L 446.278 221.464 434.639 210.608 L 422.999 199.752 390.278 231.626 C 360.992 260.154, 288.809 331.538, 188.721 430.954 C 156.057 463.399, 153.745 465.481, 150.721 465.186 C 148.949 465.014, 142.302 464.789, 135.948 464.686 C 124.467 464.501, 124.350 464.523, 116.858 468.226 C 102.817 475.165, 94.072 488.049, 93.202 503.077 C 92.420 516.587, 96.009 527.013, 104.512 535.927 C 111.573 543.330, 120.292 547.847, 130.304 549.290 C 136.841 550.231, 138.828 550.107, 146.139 548.300 L 154.500 546.234 168.734 560.307 L 182.969 574.380 166.137 590.940 C 153.113 603.753, 148.597 608.878, 146.177 613.593 C 137.983 629.557, 137.931 648.445, 146.033 665.851 C 149.670 673.663, 156.196 680.537, 184.970 706.859 C 196.778 717.662, 218.378 737.526, 232.970 751.003 C 247.561 764.480, 271.650 786.601, 286.500 800.161 C 301.350 813.721, 320.925 831.663, 330 840.032 C 361.357 868.950, 368.836 872.683, 393.500 871.729 C 407.325 871.195, 414.997 869.132, 424.791 863.318 C 431.622 859.263, 450 842.643, 450 840.521 C 450 839.802, 444.991 834.683, 438.868 829.146 L 427.736 819.080 418.654 827.554 C 406.579 838.822, 403.055 840.501, 391.500 840.495 C 384.391 840.491, 381.513 840.035, 377.802 838.324 C 373.220 836.212, 347.328 813.052, 306.492 774.540 C 297.137 765.718, 276.212 746.393, 259.992 731.596 C 171.059 650.466, 176.827 656.102, 174.031 647.604 C 172.116 641.786, 173.239 632.990, 176.655 627.037 C 178.569 623.703, 195.187 606.682, 227.421 575.040 C 253.777 549.168, 275.623 528, 275.968 528 C 276.756 528, 315.693 564.927, 326.761 576.171 L 335.021 584.563 334.761 628.226 L 334.500 671.889 315.500 654.310 C 299.141 639.174, 285.407 626.353, 247.324 590.666 L 240.032 583.832 229.016 594.574 C 222.957 600.483, 218 605.664, 218 606.088 C 218 606.836, 246.037 633.439, 277.980 663 C 286.597 670.975, 306.215 689.202, 321.574 703.503 C 336.933 717.805, 363.672 742.330, 380.993 758.003 C 431.561 803.760, 487.511 856.516, 487.486 858.418 C 487.478 859.013, 486.840 862.783, 486.068 866.795 C 483.519 880.037, 487.646 892.815, 497.716 902.863 C 522.896 927.987, 565.410 914.553, 571.195 879.645 C 572.136 873.962, 572.034 871.573, 570.555 864.692 L 568.796 856.503 582.148 843.792 C 589.491 836.800, 595.793 831.175, 596.151 831.290 C 596.510 831.406, 603.482 837.768, 611.645 845.430 C 635.821 868.118, 642.821 871.472, 666 871.473 C 679.530 871.474, 683.456 870.775, 693.064 866.656 C 699.180 864.035, 705.805 858.398, 738.636 827.887 C 756.161 811.600, 779.523 790, 790.552 779.887 C 809.616 762.406, 836.666 737.461, 876.500 700.628 C 886.400 691.474, 896.828 681.235, 899.673 677.875 C 918.944 655.117, 919.932 625.253, 902.132 603.485 C 897.433 597.739, 882.081 584, 880.358 584 C 878.688 584, 859 602.941, 859 604.548 C 859 605.287, 863.307 610.213, 868.570 615.493 C 873.965 620.906, 878.972 626.928, 880.048 629.297 C 883.981 637.960, 881.833 649.500, 874.801 657.488 C 870.103 662.826, 842.468 688.703, 790.971 735.986 C 770.912 754.403, 750.225 773.533, 745 778.496 C 739.775 783.459, 726.500 795.901, 715.500 806.145 C 678.404 840.689, 678.720 840.470, 666 840.488 C 658.512 840.499, 656.888 840.161, 652.359 837.650 C 649.531 836.083, 638.731 826.901, 628.359 817.246 C 617.986 807.590, 599.150 790.133, 586.500 778.450 C 573.850 766.768, 560.679 754.330, 557.231 750.809 L 550.962 744.408 579.231 717.760 L 607.500 691.112 653.333 691.056 C 682.559 691.020, 699.046 691.352, 698.833 691.971 C 698.650 692.505, 684.325 706.073, 667 722.123 C 620.778 764.941, 606.886 778.168, 607.210 779.048 C 607.370 779.481, 612.409 784.357, 618.408 789.884 L 629.316 799.934 635.434 794.217 C 656.079 774.924, 714.724 720.370, 727.041 709 C 771 668.421, 815.089 626.638, 885.231 559.082 L 899.163 545.664 903.861 547.353 C 927.089 555.706, 953.788 540.592, 958.891 516.201 C 963.199 495.613, 953.840 476.575, 935 467.597 C 928.803 464.645, 927.963 464.508, 917 464.669 C 910.675 464.762, 904.375 464.987, 903 465.169 C 900.917 465.445, 898 462.942, 885.526 450.180 L 870.552 434.860 888.262 417.680 C 904.516 401.912, 906.266 399.872, 909.547 392.856 C 914.777 381.671, 916.652 370.964, 915.282 360.113 C 913.904 349.208, 910.344 340.329, 903.916 331.763 C 899.382 325.721, 841.582 268.659, 737 166.980 C 705.627 136.477, 699.582 131.042, 693.965 128.290 C 684.577 123.688, 677.029 122, 665.842 122 C 647.577 122, 634.475 128.038, 617.360 144.342 C 608.945 152.359, 607.200 154.505, 607.953 155.912 C 608.462 156.863, 613.619 162.030, 619.413 167.396 L 629.948 177.151 639.361 168.184 C 652.629 155.544, 656.407 153.500, 666.500 153.500 C 673.353 153.500, 675.145 153.880, 679 156.148 C 681.475 157.605, 718.375 192.900, 761 234.582 C 862.475 333.812, 879.237 350.621, 881.579 355.500 C 884.448 361.475, 884.199 373.045, 881.073 378.993 C 878.762 383.389, 861.826 400.380, 802.079 458.238 C 783.006 476.708, 777.312 481.695, 776.079 481.006 C 775.211 480.522, 762.008 467.602, 746.740 452.296 L 718.980 424.467 719.240 377.839 L 719.500 331.211 766.500 377.561 C 792.350 403.053, 813.996 423.931, 814.601 423.955 C 815.846 424.006, 837 404.247, 837 403.034 C 837 402.276, 738.345 305.085, 631.500 200.584 C 602.900 172.612, 576.711 146.975, 573.301 143.613 L 567.102 137.500 568.535 131.500 C 572.106 116.551, 568.310 103.571, 556.806 91.394 C 549.575 83.740, 540.384 79.813, 528.601 79.342 C 521.597 79.063, 518.178 79.417, 513.762 80.878 M 519.500 104.821 C 503.756 112.284, 506.685 134.960, 523.851 138.510 C 533.816 140.571, 545.068 130.767, 544.978 120.101 C 544.879 108.387, 530.355 99.676, 519.500 104.821 M 493.275 174.250 L 479.077 188.500 502.566 211.816 L 526.055 235.131 529.173 232.508 C 530.887 231.066, 541.731 220.731, 553.271 209.542 C 572.556 190.843, 574.139 189.049, 572.854 187.349 C 572.085 186.332, 565.560 179.728, 558.354 172.674 L 545.252 159.848 539.944 161.424 C 533.242 163.414, 519.828 163.458, 513.409 161.511 C 510.709 160.692, 508.269 160.017, 507.987 160.011 C 507.705 160.005, 501.085 166.412, 493.275 174.250 M 572.796 233.503 L 549.091 256.889 588.796 295.769 C 610.633 317.153, 630.638 336.585, 633.250 338.952 C 635.862 341.318, 638 343.647, 638 344.127 C 638 344.621, 568.801 345, 478.857 345 L 319.714 345 273.607 390.742 C 248.248 415.900, 215.896 447.972, 201.714 462.014 L 175.928 487.544 177.511 492.022 C 180.071 499.261, 180.520 510.471, 178.552 518 L 176.852 524.500 189.330 536.530 C 196.193 543.146, 202.864 549.106, 204.154 549.774 C 206.380 550.926, 207.680 549.821, 229.627 528.111 L 252.754 505.233 235.377 487.877 C 225.820 478.332, 218 469.830, 218 468.984 C 218 467.603, 223.484 461.903, 235.690 450.593 L 239.881 446.710 257.885 464.469 L 275.888 482.227 320.492 438.864 C 345.024 415.014, 365.518 395.352, 366.033 395.172 C 367.219 394.756, 367.780 493.530, 367.269 612.500 C 366.959 684.709, 367.133 701.808, 368.193 703.132 C 370.343 705.816, 450.626 779.567, 457.077 784.784 L 459.901 787.068 471.201 776.855 C 492.279 757.805, 504 746.729, 504 745.860 C 504 745.384, 500.532 741.733, 496.294 737.747 C 478.537 721.047, 429.871 674.884, 422.004 667.278 L 413.500 659.056 573.774 659.028 L 734.047 659 778.274 617.254 C 802.598 594.293, 832.625 565.795, 845 553.924 C 857.375 542.053, 869.467 530.482, 871.872 528.209 C 875.071 525.186, 876.060 523.598, 875.558 522.291 C 872.511 514.350, 872.395 500.315, 875.308 492.103 L 876.867 487.706 862.694 472.853 C 854.899 464.684, 848.141 458, 847.678 458 C 847.215 458, 839.335 465.154, 830.168 473.898 C 821 482.642, 810.237 492.607, 806.250 496.044 C 802.263 499.480, 799 502.583, 799 502.938 C 799 503.293, 806.919 511.439, 816.597 521.040 C 826.276 530.640, 834.656 539.357, 835.219 540.410 C 836.102 542.059, 834.791 543.760, 825.780 552.662 C 820.025 558.348, 814.818 563, 814.208 563 C 813.598 563, 804.895 554.915, 794.868 545.033 L 776.637 527.066 771.568 531.744 C 768.781 534.317, 749.025 553.540, 727.666 574.461 C 706.307 595.383, 688.420 612.650, 687.916 612.833 C 687.364 613.034, 687 550.868, 687 456.305 L 687 299.444 664.250 276.993 C 651.737 264.645, 631.375 244.547, 619 232.330 L 596.500 210.118 572.796 233.503 M 509.730 295.733 C 500.541 304.875, 493.173 312.507, 493.358 312.691 C 493.543 312.876, 508.561 312.909, 526.732 312.764 L 559.771 312.500 554.135 306.447 C 551.036 303.117, 543.536 295.605, 537.469 289.752 L 526.438 279.110 509.730 295.733 M 430.245 503.250 L 430.500 598.500 449 598.823 C 459.175 599, 502.712 598.833, 545.750 598.452 L 624 597.758 624 502.879 L 624 408 526.995 408 L 429.990 408 430.245 503.250 M 719.008 503.829 L 719 538.158 736 521.883 C 745.350 512.932, 753 505.161, 753 504.613 C 753 504.065, 745.354 495.941, 736.008 486.559 L 719.016 469.500 719.008 503.829 M 316.651 487.092 C 307.493 495.943, 300 503.718, 300 504.370 C 300 505.516, 333.248 538, 334.421 538 C 334.739 538, 335 522.925, 335 504.500 C 335 486.075, 334.618 471, 334.151 471 C 333.684 471, 325.809 478.242, 316.651 487.092 M 909 490.686 C 904.692 492.890, 903.012 494.467, 901.250 497.962 C 897.345 505.706, 898.762 514.098, 904.839 519.211 C 916.778 529.257, 934 521.660, 934 506.348 C 934 500.194, 931.452 495.311, 926.397 491.775 C 920.424 487.598, 915.623 487.298, 909 490.686 M 130.030 490.113 C 126.064 491.695, 121.118 495.870, 119.499 499.002 C 116.619 504.572, 118.067 512.883, 122.871 518.356 C 125.564 521.425, 131.652 524, 136.210 523.998 C 141.718 523.996, 146.563 521.495, 150.429 516.657 C 153.117 513.293, 153.500 512.038, 153.500 506.584 C 153.500 499.241, 150.804 494.382, 144.881 491.053 C 140.962 488.851, 134.256 488.426, 130.030 490.113 M 494 691.901 C 494 693.024, 525.729 723, 526.918 723 C 528.544 723, 561 693.381, 561 691.898 C 561 691.385, 546.629 691, 527.500 691 C 508.281 691, 494 691.384, 494 691.901 M 505.618 787.652 C 493.728 798.992, 484 808.608, 484 809.022 C 484 809.435, 489.838 815.264, 496.974 821.975 L 509.948 834.178 515.164 832.445 C 521.979 830.182, 535.102 830.180, 540.516 832.442 C 542.694 833.352, 545.382 833.839, 546.488 833.524 C 547.595 833.209, 554.059 827.636, 560.854 821.140 L 573.208 809.328 551.499 788.914 C 539.560 777.686, 529.216 768.170, 528.514 767.766 C 527.674 767.284, 519.830 774.096, 505.618 787.652 M 520.411 857.891 C 513.568 862.064, 510.095 869.924, 511.988 876.955 C 517.337 896.818, 546 892.801, 546 872.188 C 546 866.500, 543.333 861.815, 538.078 858.274 C 533.696 855.321, 524.937 855.131, 520.411 857.891" stroke="none" fill="#f2f3f4" fill-rule="evenodd"/></svg>