<svg xmlns="http://www.w3.org/2000/svg" width="1164" height="951" viewBox="0 0 1164 951" version="1.1"><path d="M 569.746 81.086 C 559.276 83.553, 548.478 92.236, 543.678 102.048 C 539.823 109.925, 538.595 118.137, 539.763 128.208 L 540.725 136.500 526.143 151.263 L 511.560 166.026 501.530 156.196 C 480.978 136.052, 475.440 131.427, 466.811 127.198 C 456.563 122.176, 448.604 120.571, 437.216 121.232 C 427.300 121.807, 416.993 124.987, 408.218 130.179 C 404.356 132.464, 383.399 152.386, 341.052 194.027 C 307.199 227.318, 267.125 266.459, 252 281.008 C 202.816 328.320, 198.771 332.551, 194.640 341 C 185.225 360.254, 186.184 381.742, 197.221 398.796 C 200.772 404.283, 222.103 426, 223.942 426 C 224.972 426, 246.004 404.425, 245.973 403.399 C 245.959 402.905, 242.545 399.575, 238.388 396 C 225.147 384.613, 220.284 375.836, 221.259 365.083 C 222.198 354.726, 224.788 351.310, 250.191 326.922 C 282.504 295.901, 310.065 268.868, 370.500 208.916 C 404.249 175.438, 423.904 156.660, 426.500 155.416 C 429.540 153.960, 432.659 153.505, 439.500 153.519 C 447.269 153.536, 449.190 153.900, 453.544 156.181 C 457.154 158.074, 472.922 172.883, 509.044 208.306 C 536.795 235.521, 563.100 261.548, 567.500 266.144 L 575.500 274.500 566.979 266.250 C 562.293 261.712, 558.089 258, 557.638 258 C 557.187 258, 546.172 268.272, 533.159 280.826 C 520.147 293.380, 507.203 305.755, 504.396 308.326 L 499.293 313 451.896 312.989 L 404.500 312.979 416.500 301.202 C 423.100 294.725, 444.471 273.756, 463.990 254.605 L 499.481 219.784 488.743 209.392 C 482.838 203.676, 477.616 199, 477.141 199 C 475.194 199, 244.912 424.658, 219.104 451.856 L 205.009 466.709 199.787 465.355 C 188.910 462.533, 174.843 464.394, 166 469.824 C 160.127 473.430, 152.098 482.101, 149.453 487.692 C 144.448 498.271, 144.457 514.765, 149.473 525.722 C 157.637 543.555, 180.323 553.714, 200.339 548.500 C 203.506 547.675, 206.467 547, 206.920 547 C 207.843 547, 236.349 572.634, 236.770 573.843 C 236.918 574.270, 230.475 581.117, 222.452 589.059 C 200.028 611.257, 195.811 619.136, 195.722 639 C 195.646 655.959, 199.943 667.065, 211.264 679.166 C 217.406 685.732, 243.281 709.415, 304.755 764.738 C 321.946 780.208, 345.749 801.783, 357.652 812.683 C 414.972 865.170, 414.391 864.694, 426.568 869.236 C 431.704 871.152, 434.513 871.452, 447.500 871.474 C 460.665 871.497, 463.328 871.214, 469.266 869.163 C 478.008 866.144, 485.173 861.175, 497.354 849.683 L 507.208 840.387 495.567 830.102 C 485.307 821.038, 483.722 819.973, 482.213 821.132 C 481.271 821.855, 476.872 825.875, 472.438 830.065 C 463.273 838.727, 458.297 841, 448.503 841 C 438.866 841, 433.223 838.823, 425.839 832.258 C 422.277 829.091, 406.568 814.760, 390.931 800.411 C 375.294 786.062, 347.650 760.874, 329.500 744.438 C 278.632 698.372, 238.837 661.720, 235.248 657.631 C 230.336 652.035, 228.719 647.488, 228.621 639 C 228.552 633.098, 228.995 630.648, 230.696 627.500 C 231.916 625.243, 253.984 602.415, 281.353 575.100 L 329.849 526.699 355.175 550.754 C 369.104 563.985, 382.300 576.673, 384.500 578.951 L 388.500 583.093 389 626.297 C 389.275 650.058, 389.418 669.657, 389.317 669.849 C 389.163 670.145, 355.413 639.613, 310 598.095 C 303.675 592.313, 297.474 586.685, 296.220 585.588 L 293.939 583.594 282.965 594.534 C 276.930 600.551, 272.106 605.738, 272.246 606.059 C 272.861 607.475, 331.138 661.179, 421.953 744.019 C 460.317 779.013, 492.761 808.686, 515.421 829.500 C 527.396 840.500, 539.223 851.309, 541.704 853.520 L 546.214 857.540 544.607 862.952 C 538.878 882.243, 548.060 902.517, 566.414 911.106 C 577.980 916.519, 586.976 917.018, 599.500 912.943 C 619.198 906.534, 631.710 884.029, 626.620 864.162 C 625.727 860.678, 625.335 857.249, 625.749 856.542 C 626.162 855.836, 632.486 849.778, 639.803 843.080 L 653.106 830.903 657.803 834.875 C 660.386 837.060, 668.241 844.212, 675.258 850.769 C 682.275 857.326, 690.229 863.895, 692.933 865.367 C 704.287 871.547, 725.286 873.900, 738.458 870.469 C 751.463 867.082, 754.293 864.879, 795.500 826.080 C 818.149 804.754, 853.786 771.658, 885.496 742.500 C 924.590 706.553, 953.985 678.676, 957.349 674.358 C 968.195 660.437, 972.251 643.177, 968.459 627.088 C 965.425 614.218, 961.875 608.591, 948.370 595.250 C 941.551 588.513, 935.632 583, 935.218 583 C 934.804 583, 929.538 587.943, 923.515 593.985 L 912.564 604.970 923.166 615.235 C 934.793 626.493, 936.397 629.374, 936.397 639 C 936.397 646.020, 934.607 651.240, 930.655 655.740 C 926.483 660.492, 881.740 702.989, 833 748.495 C 811.275 768.778, 781.674 796.427, 767.219 809.936 C 752.764 823.446, 738.674 835.797, 735.907 837.382 C 731.527 839.890, 729.852 840.263, 722.967 840.263 C 712.348 840.263, 707.422 837.733, 694 825.385 C 674.241 807.207, 618.549 755.506, 613.021 750.210 L 607.500 744.921 625.500 727.332 C 635.400 717.658, 648.057 705.522, 653.628 700.362 L 663.755 690.980 709.796 691.240 L 755.837 691.500 719.168 725.787 C 699.001 744.645, 678.225 764.131, 673 769.090 L 663.500 778.107 674.500 788.513 C 680.550 794.237, 685.725 798.938, 686 798.959 C 686.495 798.999, 700.695 785.742, 762.447 727.586 C 780.018 711.039, 802.068 690.324, 811.447 681.553 C 839.825 655.017, 930.379 569.306, 948.599 551.738 L 954.699 545.857 960.494 547.541 C 969.751 550.232, 982.676 549.281, 991.223 545.278 C 1003.412 539.571, 1012.282 528.674, 1014.891 516.201 C 1019.211 495.552, 1009.943 476.553, 991.223 467.685 C 984.879 464.679, 983.852 464.500, 973 464.500 C 966.675 464.500, 960.340 464.725, 958.923 465 C 956.667 465.438, 954.491 463.587, 941.503 450.183 L 926.661 434.865 944.080 417.709 C 958.804 403.208, 961.152 400.499, 959.250 400.206 C 958.013 400.016, 957 399.416, 957 398.871 C 957 398.327, 957.384 398.119, 957.854 398.410 C 959.577 399.475, 960.850 394.522, 959.500 392.001 C 958.311 389.778, 958.187 389.747, 957.727 391.556 C 957.283 393.300, 957.220 393.274, 957.116 391.309 C 957.052 390.104, 957.450 388.840, 958 388.500 C 958.550 388.160, 958.993 387.346, 958.985 386.691 C 958.975 385.975, 958.582 386.099, 958 387 C 957.212 388.219, 957.028 388.090, 957.015 386.309 C 957.007 385.104, 956.578 383.857, 956.061 383.538 C 955.545 383.219, 955.297 382.055, 955.509 380.952 C 955.722 379.849, 955.469 379.210, 954.948 379.532 C 954.426 379.854, 954 379.641, 954 379.059 C 954 378.477, 954.498 378, 955.107 378 C 955.718 378, 955.935 377.272, 955.590 376.373 C 955.246 375.479, 955.478 374.129, 956.105 373.373 C 956.994 372.303, 956.879 372, 955.587 372 C 954.240 372, 954.130 371.626, 955 370 C 955.961 368.204, 955.679 367.636, 953.917 367.826 C 952.956 367.930, 953.199 364.594, 954.250 363.261 C 954.787 362.580, 955.593 362.248, 956.041 362.525 C 956.489 362.802, 958.125 361.911, 959.678 360.546 C 961.919 358.575, 962.140 358.057, 960.750 358.032 C 959.788 358.014, 959 357.475, 959 356.833 C 959 356.192, 959.301 355.968, 959.669 356.336 C 960.443 357.110, 964 354.154, 964 352.736 C 964 352.211, 962.425 351.965, 960.500 352.190 C 958.575 352.415, 957 352.212, 957 351.740 C 957 351.268, 956.550 351.160, 956 351.500 C 955.450 351.840, 955 351.641, 955 351.059 C 955 350.477, 955.450 350, 956 350 C 956.550 350, 957 349.031, 957 347.847 C 957 345.720, 957.026 345.723, 959.156 348.097 C 960.986 350.137, 961.196 350.198, 960.542 348.500 C 960.119 347.400, 959.526 345.600, 959.224 344.500 C 958.922 343.400, 958.186 342.128, 957.588 341.674 C 956.821 341.092, 956.867 340.699, 957.742 340.343 C 958.675 339.964, 958.712 339.331, 957.892 337.799 C 957.073 336.269, 957.092 335.939, 957.967 336.480 C 958.654 336.904, 959.058 336.645, 958.948 335.850 C 958.417 331.982, 959.116 331.624, 961.588 334.500 L 964.165 337.500 962.036 334.280 C 959.644 330.664, 958 329.327, 958 331 C 958 331.615, 957.588 331.864, 957.085 331.553 C 956.582 331.242, 955.920 331.553, 955.615 332.244 C 955.309 332.935, 955.158 332.600, 955.279 331.500 C 955.401 330.400, 956.066 329.268, 956.759 328.984 C 957.532 328.667, 955.029 325.577, 950.278 320.984 C 946.021 316.868, 943.823 314.933, 945.393 316.684 L 948.248 319.868 939.874 319.879 C 930.527 319.891, 925.045 318.116, 928.582 316.224 C 929.637 315.659, 930.950 315.040, 931.500 314.849 C 932.050 314.657, 932.376 314.129, 932.225 313.676 C 932.074 313.222, 932.381 313.117, 932.906 313.442 C 933.432 313.767, 934.144 313.575, 934.490 313.016 C 934.835 312.457, 934.641 312, 934.059 312 C 933.477 312, 933 311.400, 933 310.667 C 933 308.816, 936.099 308.938, 938.483 310.883 C 940.382 312.432, 940.403 312.416, 938.983 310.500 C 936.846 307.618, 934.661 306.091, 933.607 306.743 C 933.103 307.054, 932.993 306.821, 933.362 306.224 C 934.546 304.308, 931.955 303.726, 923.103 303.920 C 912.812 304.146, 910.349 303.522, 912.224 301.160 C 912.926 300.276, 912.210 300.548, 910.632 301.763 C 907.540 304.146, 905.705 303.932, 906.714 301.304 C 907.132 300.213, 906.952 299.912, 906.170 300.395 C 905.401 300.870, 905 300.298, 905 298.726 C 905 295.711, 904.045 294.718, 902.431 296.057 C 901.561 296.779, 900.975 296.769, 900.515 296.024 C 900.150 295.433, 900.447 295.074, 901.176 295.225 C 901.904 295.376, 902.362 294.861, 902.194 294.081 C 901.940 292.907, 902.157 292.885, 903.444 293.953 C 904.300 294.664, 905 294.896, 905 294.469 C 905 294.043, 905.874 294.701, 906.942 295.933 C 908.249 297.441, 909.520 297.970, 910.834 297.553 C 912.801 296.928, 914.589 293, 912.906 293 C 912.408 293, 912 293.627, 912 294.393 C 912 295.159, 911.304 296.053, 910.453 296.380 C 909.056 296.916, 909.056 296.758, 910.453 294.764 C 912.242 292.210, 912.418 291, 911 291 C 910.450 291, 910 291.675, 910 292.500 C 910 293.325, 909.212 293.964, 908.250 293.921 C 907.194 293.873, 906.998 293.641, 907.756 293.336 C 908.447 293.057, 908.745 292.396, 908.417 291.866 C 908.058 291.284, 907.199 291.417, 906.250 292.201 C 904.843 293.365, 904.822 293.270, 906.055 291.290 C 906.812 290.074, 907.672 289.399, 907.966 289.790 C 908.260 290.180, 909.712 290.516, 911.194 290.535 C 913.322 290.563, 913.656 290.291, 912.786 289.243 C 912.053 288.358, 912.018 287.582, 912.684 286.916 C 913.350 286.250, 915.177 287.517, 918.157 290.708 C 920.618 293.344, 924.402 297.067, 926.566 298.983 C 928.730 300.898, 926.257 298.109, 921.071 292.784 C 915.885 287.460, 911.203 283.374, 910.667 283.706 C 910.130 284.038, 909.969 283.859, 910.310 283.308 C 911.048 282.113, 779.468 152.378, 777.921 152.775 C 777.333 152.926, 777.096 152.654, 777.394 152.171 C 778.161 150.930, 762.591 136.026, 756 131.693 C 739.344 120.742, 719.761 119.203, 698.758 127.194 C 689.902 130.563, 685.094 133.972, 671.924 146.220 L 662.549 154.939 666.024 158.559 C 667.936 160.550, 672.979 165.329, 677.231 169.179 L 684.963 176.178 693.881 167.999 C 708.250 154.823, 712.692 152.499, 723.500 152.502 C 736.756 152.507, 717.031 134.351, 906.230 320.704 C 924.355 338.557, 935.767 350.570, 937.146 353.251 C 938.633 356.142, 939.479 359.971, 939.793 365.230 C 940.553 377.954, 939.586 379.304, 908.769 408.555 C 894.321 422.269, 871.346 444.500, 857.713 457.956 L 832.925 482.421 803.713 453.209 L 774.500 423.996 774.144 377.498 C 773.903 346.056, 774.121 331, 774.817 331 C 775.383 331, 797.178 352.123, 823.249 377.940 L 870.652 424.880 881.951 413.549 L 893.251 402.217 838.375 347.834 C 765.865 275.973, 731.693 242.439, 683.490 195.843 C 661.495 174.582, 638.851 152.488, 633.170 146.745 L 622.839 136.305 624.053 130.136 C 628.565 107.201, 615.838 87.621, 592.458 81.531 C 586.097 79.874, 575.748 79.671, 569.746 81.086 M 551.220 169.891 C 537.350 182.688, 533.689 186.567, 534.157 187.972 C 534.368 188.603, 545.249 199.383, 558.338 211.928 L 582.136 234.737 597.318 220.083 C 625.967 192.430, 629.947 188.851, 631.243 189.579 C 633.308 190.739, 623.243 180.530, 611.733 169.792 L 600.966 159.746 595.168 161.373 C 587.925 163.405, 575.866 163.470, 569.409 161.511 C 566.709 160.692, 563.924 160.017, 563.220 160.011 C 562.516 160.005, 557.116 164.451, 551.220 169.891 M 639.898 220.595 C 633.629 226.422, 622.804 236.434, 615.842 242.845 C 608.880 249.255, 603.255 254.800, 603.342 255.167 C 603.429 255.534, 623.525 275.539, 648 299.622 C 672.475 323.706, 692.650 343.768, 692.833 344.205 C 693.017 344.642, 620.822 345, 532.401 345 L 371.635 345 323.667 392.750 C 297.284 419.012, 265.125 451.177, 252.201 464.227 L 228.704 487.954 230.852 494.498 C 233.368 502.163, 233.611 510.669, 231.511 517.591 C 230.692 520.291, 230.017 523.003, 230.011 523.617 C 229.997 525.090, 257.809 550.500, 259.436 550.500 C 260.128 550.500, 271.122 540.305, 283.867 527.845 L 307.039 505.191 288.520 487.371 C 278.334 477.570, 270 469.063, 270 468.466 C 270 467.107, 290.343 447, 291.718 447 C 292.272 447, 299.425 453.372, 307.613 461.160 C 315.801 468.948, 324.197 476.924, 326.272 478.884 L 330.043 482.448 374.888 437.612 L 419.732 392.776 420.369 471.638 C 420.719 515.012, 421.263 584.475, 421.578 626 L 422.150 701.500 425.325 704.419 C 441.110 718.930, 498.554 771.454, 506.126 778.299 C 511.420 783.084, 516.073 787, 516.466 787 C 517.168 787, 524.531 780.104, 548.674 756.835 L 560.848 745.102 514.984 702.301 L 469.120 659.500 629.153 659.247 L 789.186 658.994 794.445 654.247 C 797.337 651.636, 818.714 631.500, 841.949 609.500 C 865.185 587.500, 894.164 560.136, 906.348 548.690 C 918.532 537.245, 929.338 527.058, 930.361 526.051 C 932.135 524.308, 932.147 523.920, 930.611 517.797 C 928.442 509.149, 928.579 502.900, 931.123 494.315 L 933.253 487.129 918.377 472.587 C 910.194 464.589, 903.325 458.035, 903.112 458.022 C 902.312 457.976, 892.922 466.863, 874.222 485.364 L 854.944 504.437 873.222 522.640 C 883.275 532.652, 891.500 541.227, 891.500 541.695 C 891.500 542.799, 870.537 563, 869.391 563 C 868.912 563, 860.338 554.827, 850.337 544.837 L 832.155 526.675 823.703 534.587 C 819.055 538.939, 799.052 558.362, 779.251 577.749 L 743.250 612.998 742.607 609.783 C 742.253 608.015, 742.008 537.028, 742.062 452.034 L 742.161 297.500 697.451 253.750 C 672.861 229.688, 652.417 210, 652.019 210 C 651.621 210, 646.167 214.768, 639.898 220.595 M 578.562 278.301 C 578.854 279.063, 572.031 286.223, 562.124 295.551 C 552.808 304.323, 545.144 311.837, 545.093 312.250 C 545.042 312.663, 560.788 313, 580.083 313 C 601.979 313, 615.041 312.640, 614.833 312.043 C 614.448 310.937, 579.327 277, 578.568 277 C 578.290 277, 578.288 277.586, 578.562 278.301 M 485.245 503.250 L 485.500 598.500 582.500 598.500 L 679.500 598.500 679.479 546 C 679.468 517.125, 679.355 474.262, 679.229 450.750 L 679 408 581.995 408 L 484.990 408 485.245 503.250 M 370.453 487.113 L 353.500 504.154 370.500 520.554 C 379.850 529.574, 387.855 536.964, 388.288 536.977 C 388.907 536.995, 388.194 471.124, 387.566 470.286 C 387.478 470.169, 379.777 477.741, 370.453 487.113 M 774.028 504 C 774.048 522.700, 774.392 538, 774.793 538 C 775.194 538, 783.162 530.350, 792.500 521 L 809.478 504 792.500 487 C 783.162 477.650, 775.178 470, 774.756 470 C 774.335 470, 774.007 485.300, 774.028 504 M 557.025 698.280 C 561.164 702.251, 568.936 709.502, 574.297 714.393 L 584.043 723.286 590.777 716.893 C 594.480 713.377, 602.132 706.112, 607.781 700.750 L 618.051 691 583.775 691.030 L 549.500 691.061 557.025 698.280 M 566.500 783.037 C 557.150 791.825, 547.311 801.282, 544.636 804.053 C 538.892 810.002, 537.787 807.880, 555.041 824.031 L 566.582 834.834 572.041 832.950 C 579.318 830.438, 590.015 830.438, 598.087 832.950 L 604.352 834.900 616.926 822.779 C 623.842 816.112, 629.626 810.357, 629.780 809.989 C 630.274 808.808, 585.864 766.959, 584.192 767.029 C 583.812 767.045, 575.850 774.249, 566.500 783.037" stroke="none" fill="#3a414d" fill-rule="evenodd"/><path d="M 0 475.501 L 0 951.002 582.250 950.751 L 1164.500 950.500 1164.751 475.250 L 1165.002 0 582.501 0 L 0 0 0 475.501 M 0.496 476 C 0.496 737.525, 0.610 844.512, 0.750 713.750 C 0.890 582.987, 0.890 369.012, 0.750 238.250 C 0.610 107.487, 0.496 214.475, 0.496 476 M 569.746 81.086 C 559.276 83.553, 548.478 92.236, 543.678 102.048 C 539.823 109.925, 538.595 118.137, 539.763 128.208 L 540.725 136.500 526.143 151.263 L 511.560 166.026 501.530 156.196 C 480.978 136.052, 475.440 131.427, 466.811 127.198 C 456.563 122.176, 448.604 120.571, 437.216 121.232 C 427.300 121.807, 416.993 124.987, 408.218 130.179 C 404.356 132.464, 383.399 152.386, 341.052 194.027 C 307.199 227.318, 267.125 266.459, 252 281.008 C 202.816 328.320, 198.771 332.551, 194.640 341 C 185.225 360.254, 186.184 381.742, 197.221 398.796 C 200.772 404.283, 222.103 426, 223.942 426 C 224.972 426, 246.004 404.425, 245.973 403.399 C 245.959 402.905, 242.545 399.575, 238.388 396 C 225.147 384.613, 220.284 375.836, 221.259 365.083 C 222.198 354.726, 224.788 351.310, 250.191 326.922 C 282.504 295.901, 310.065 268.868, 370.500 208.916 C 404.249 175.438, 423.904 156.660, 426.500 155.416 C 429.540 153.960, 432.659 153.505, 439.500 153.519 C 447.269 153.536, 449.190 153.900, 453.544 156.181 C 457.154 158.074, 472.922 172.883, 509.044 208.306 C 536.795 235.521, 563.100 261.548, 567.500 266.144 L 575.500 274.500 566.979 266.250 C 562.293 261.712, 558.089 258, 557.638 258 C 557.187 258, 546.172 268.272, 533.159 280.826 C 520.147 293.380, 507.203 305.755, 504.396 308.326 L 499.293 313 451.896 312.989 L 404.500 312.979 416.500 301.202 C 423.100 294.725, 444.471 273.756, 463.990 254.605 L 499.481 219.784 488.743 209.392 C 482.838 203.676, 477.616 199, 477.141 199 C 475.194 199, 244.912 424.658, 219.104 451.856 L 205.009 466.709 199.787 465.355 C 188.910 462.533, 174.843 464.394, 166 469.824 C 160.127 473.430, 152.098 482.101, 149.453 487.692 C 144.448 498.271, 144.457 514.765, 149.473 525.722 C 157.637 543.555, 180.323 553.714, 200.339 548.500 C 203.506 547.675, 206.467 547, 206.920 547 C 207.843 547, 236.349 572.634, 236.770 573.843 C 236.918 574.270, 230.475 581.117, 222.452 589.059 C 200.028 611.257, 195.811 619.136, 195.722 639 C 195.646 655.959, 199.943 667.065, 211.264 679.166 C 217.406 685.732, 243.281 709.415, 304.755 764.738 C 321.946 780.208, 345.749 801.783, 357.652 812.683 C 414.972 865.170, 414.391 864.694, 426.568 869.236 C 431.704 871.152, 434.513 871.452, 447.500 871.474 C 460.665 871.497, 463.328 871.214, 469.266 869.163 C 478.008 866.144, 485.173 861.175, 497.354 849.683 L 507.208 840.387 495.567 830.102 C 485.307 821.038, 483.722 819.973, 482.213 821.132 C 481.271 821.855, 476.872 825.875, 472.438 830.065 C 463.273 838.727, 458.297 841, 448.503 841 C 438.866 841, 433.223 838.823, 425.839 832.258 C 422.277 829.091, 406.568 814.760, 390.931 800.411 C 375.294 786.062, 347.650 760.874, 329.500 744.438 C 278.632 698.372, 238.837 661.720, 235.248 657.631 C 230.336 652.035, 228.719 647.488, 228.621 639 C 228.552 633.098, 228.995 630.648, 230.696 627.500 C 231.916 625.243, 253.984 602.415, 281.353 575.100 L 329.849 526.699 355.175 550.754 C 369.104 563.985, 382.300 576.673, 384.500 578.951 L 388.500 583.093 389 626.297 C 389.275 650.058, 389.418 669.657, 389.317 669.849 C 389.163 670.145, 355.413 639.613, 310 598.095 C 303.675 592.313, 297.474 586.685, 296.220 585.588 L 293.939 583.594 282.965 594.534 C 276.930 600.551, 272.106 605.738, 272.246 606.059 C 272.861 607.475, 331.138 661.179, 421.953 744.019 C 460.317 779.013, 492.761 808.686, 515.421 829.500 C 527.396 840.500, 539.223 851.309, 541.704 853.520 L 546.214 857.540 544.607 862.952 C 538.878 882.243, 548.060 902.517, 566.414 911.106 C 577.980 916.519, 586.976 917.018, 599.500 912.943 C 619.198 906.534, 631.710 884.029, 626.620 864.162 C 625.727 860.678, 625.335 857.249, 625.749 856.542 C 626.162 855.836, 632.486 849.778, 639.803 843.080 L 653.106 830.903 657.803 834.875 C 660.386 837.060, 668.241 844.212, 675.258 850.769 C 682.275 857.326, 690.229 863.895, 692.933 865.367 C 704.287 871.547, 725.286 873.900, 738.458 870.469 C 751.463 867.082, 754.293 864.879, 795.500 826.080 C 818.149 804.754, 853.786 771.658, 885.496 742.500 C 924.590 706.553, 953.985 678.676, 957.349 674.358 C 968.195 660.437, 972.251 643.177, 968.459 627.088 C 965.425 614.218, 961.875 608.591, 948.370 595.250 C 941.551 588.513, 935.632 583, 935.218 583 C 934.804 583, 929.538 587.943, 923.515 593.985 L 912.564 604.970 923.166 615.235 C 934.793 626.493, 936.397 629.374, 936.397 639 C 936.397 646.020, 934.607 651.240, 930.655 655.740 C 926.483 660.492, 881.740 702.989, 833 748.495 C 811.275 768.778, 781.674 796.427, 767.219 809.936 C 752.764 823.446, 738.674 835.797, 735.907 837.382 C 731.527 839.890, 729.852 840.263, 722.967 840.263 C 712.348 840.263, 707.422 837.733, 694 825.385 C 674.241 807.207, 618.549 755.506, 613.021 750.210 L 607.500 744.921 625.500 727.332 C 635.400 717.658, 648.057 705.522, 653.628 700.362 L 663.755 690.980 709.796 691.240 L 755.837 691.500 719.168 725.787 C 699.001 744.645, 678.225 764.131, 673 769.090 L 663.500 778.107 674.500 788.513 C 680.550 794.237, 685.725 798.938, 686 798.959 C 686.495 798.999, 700.695 785.742, 762.447 727.586 C 780.018 711.039, 802.068 690.324, 811.447 681.553 C 839.825 655.017, 930.379 569.306, 948.599 551.738 L 954.699 545.857 960.494 547.541 C 969.751 550.232, 982.676 549.281, 991.223 545.278 C 1003.412 539.571, 1012.282 528.674, 1014.891 516.201 C 1019.211 495.552, 1009.943 476.553, 991.223 467.685 C 984.879 464.679, 983.852 464.500, 973 464.500 C 966.675 464.500, 960.340 464.725, 958.923 465 C 956.667 465.438, 954.491 463.587, 941.503 450.183 L 926.661 434.865 944.080 417.709 C 958.804 403.208, 961.152 400.499, 959.250 400.206 C 958.013 400.016, 957 399.416, 957 398.871 C 957 398.327, 957.384 398.119, 957.854 398.410 C 959.577 399.475, 960.850 394.522, 959.500 392.001 C 958.311 389.778, 958.187 389.747, 957.727 391.556 C 957.283 393.300, 957.220 393.274, 957.116 391.309 C 957.052 390.104, 957.450 388.840, 958 388.500 C 958.550 388.160, 958.993 387.346, 958.985 386.691 C 958.975 385.975, 958.582 386.099, 958 387 C 957.212 388.219, 957.028 388.090, 957.015 386.309 C 957.007 385.104, 956.578 383.857, 956.061 383.538 C 955.545 383.219, 955.297 382.055, 955.509 380.952 C 955.722 379.849, 955.469 379.210, 954.948 379.532 C 954.426 379.854, 954 379.641, 954 379.059 C 954 378.477, 954.498 378, 955.107 378 C 955.718 378, 955.935 377.272, 955.590 376.373 C 955.246 375.479, 955.478 374.129, 956.105 373.373 C 956.994 372.303, 956.879 372, 955.587 372 C 954.240 372, 954.130 371.626, 955 370 C 955.961 368.204, 955.679 367.636, 953.917 367.826 C 952.956 367.930, 953.199 364.594, 954.250 363.261 C 954.787 362.580, 955.593 362.248, 956.041 362.525 C 956.489 362.802, 958.125 361.911, 959.678 360.546 C 961.919 358.575, 962.140 358.057, 960.750 358.032 C 959.788 358.014, 959 357.475, 959 356.833 C 959 356.192, 959.301 355.968, 959.669 356.336 C 960.443 357.110, 964 354.154, 964 352.736 C 964 352.211, 962.425 351.965, 960.500 352.190 C 958.575 352.415, 957 352.212, 957 351.740 C 957 351.268, 956.550 351.160, 956 351.500 C 955.450 351.840, 955 351.641, 955 351.059 C 955 350.477, 955.450 350, 956 350 C 956.550 350, 957 349.031, 957 347.847 C 957 345.720, 957.026 345.723, 959.156 348.097 C 960.986 350.137, 961.196 350.198, 960.542 348.500 C 960.119 347.400, 959.526 345.600, 959.224 344.500 C 958.922 343.400, 958.186 342.128, 957.588 341.674 C 956.821 341.092, 956.867 340.699, 957.742 340.343 C 958.675 339.964, 958.712 339.331, 957.892 337.799 C 957.073 336.269, 957.092 335.939, 957.967 336.480 C 958.654 336.904, 959.058 336.645, 958.948 335.850 C 958.417 331.982, 959.116 331.624, 961.588 334.500 L 964.165 337.500 962.036 334.280 C 959.644 330.664, 958 329.327, 958 331 C 958 331.615, 957.588 331.864, 957.085 331.553 C 956.582 331.242, 955.920 331.553, 955.615 332.244 C 955.309 332.935, 955.158 332.600, 955.279 331.500 C 955.401 330.400, 956.066 329.268, 956.759 328.984 C 957.532 328.667, 955.029 325.577, 950.278 320.984 C 946.021 316.868, 943.823 314.933, 945.393 316.684 L 948.248 319.868 939.874 319.879 C 930.527 319.891, 925.045 318.116, 928.582 316.224 C 929.637 315.659, 930.950 315.040, 931.500 314.849 C 932.050 314.657, 932.376 314.129, 932.225 313.676 C 932.074 313.222, 932.381 313.117, 932.906 313.442 C 933.432 313.767, 934.144 313.575, 934.490 313.016 C 934.835 312.457, 934.641 312, 934.059 312 C 933.477 312, 933 311.400, 933 310.667 C 933 308.816, 936.099 308.938, 938.483 310.883 C 940.382 312.432, 940.403 312.416, 938.983 310.500 C 936.846 307.618, 934.661 306.091, 933.607 306.743 C 933.103 307.054, 932.993 306.821, 933.362 306.224 C 934.546 304.308, 931.955 303.726, 923.103 303.920 C 912.812 304.146, 910.349 303.522, 912.224 301.160 C 912.926 300.276, 912.210 300.548, 910.632 301.763 C 907.540 304.146, 905.705 303.932, 906.714 301.304 C 907.132 300.213, 906.952 299.912, 906.170 300.395 C 905.401 300.870, 905 300.298, 905 298.726 C 905 295.711, 904.045 294.718, 902.431 296.057 C 901.561 296.779, 900.975 296.769, 900.515 296.024 C 900.150 295.433, 900.447 295.074, 901.176 295.225 C 901.904 295.376, 902.362 294.861, 902.194 294.081 C 901.940 292.907, 902.157 292.885, 903.444 293.953 C 904.300 294.664, 905 294.896, 905 294.469 C 905 294.043, 905.874 294.701, 906.942 295.933 C 908.249 297.441, 909.520 297.970, 910.834 297.553 C 912.801 296.928, 914.589 293, 912.906 293 C 912.408 293, 912 293.627, 912 294.393 C 912 295.159, 911.304 296.053, 910.453 296.380 C 909.056 296.916, 909.056 296.758, 910.453 294.764 C 912.242 292.210, 912.418 291, 911 291 C 910.450 291, 910 291.675, 910 292.500 C 910 293.325, 909.212 293.964, 908.250 293.921 C 907.194 293.873, 906.998 293.641, 907.756 293.336 C 908.447 293.057, 908.745 292.396, 908.417 291.866 C 908.058 291.284, 907.199 291.417, 906.250 292.201 C 904.843 293.365, 904.822 293.270, 906.055 291.290 C 906.812 290.074, 907.672 289.399, 907.966 289.790 C 908.260 290.180, 909.712 290.516, 911.194 290.535 C 913.322 290.563, 913.656 290.291, 912.786 289.243 C 912.053 288.358, 912.018 287.582, 912.684 286.916 C 913.350 286.250, 915.177 287.517, 918.157 290.708 C 920.618 293.344, 924.402 297.067, 926.566 298.983 C 928.730 300.898, 926.257 298.109, 921.071 292.784 C 915.885 287.460, 911.203 283.374, 910.667 283.706 C 910.130 284.038, 909.969 283.859, 910.310 283.308 C 911.048 282.113, 779.468 152.378, 777.921 152.775 C 777.333 152.926, 777.096 152.654, 777.394 152.171 C 778.161 150.930, 762.591 136.026, 756 131.693 C 739.344 120.742, 719.761 119.203, 698.758 127.194 C 689.902 130.563, 685.094 133.972, 671.924 146.220 L 662.549 154.939 666.024 158.559 C 667.936 160.550, 672.979 165.329, 677.231 169.179 L 684.963 176.178 693.881 167.999 C 708.250 154.823, 712.692 152.499, 723.500 152.502 C 736.756 152.507, 717.031 134.351, 906.230 320.704 C 924.355 338.557, 935.767 350.570, 937.146 353.251 C 938.633 356.142, 939.479 359.971, 939.793 365.230 C 940.553 377.954, 939.586 379.304, 908.769 408.555 C 894.321 422.269, 871.346 444.500, 857.713 457.956 L 832.925 482.421 803.713 453.209 L 774.500 423.996 774.144 377.498 C 773.903 346.056, 774.121 331, 774.817 331 C 775.383 331, 797.178 352.123, 823.249 377.940 L 870.652 424.880 881.951 413.549 L 893.251 402.217 838.375 347.834 C 765.865 275.973, 731.693 242.439, 683.490 195.843 C 661.495 174.582, 638.851 152.488, 633.170 146.745 L 622.839 136.305 624.053 130.136 C 628.565 107.201, 615.838 87.621, 592.458 81.531 C 586.097 79.874, 575.748 79.671, 569.746 81.086 M 551.220 169.891 C 537.350 182.688, 533.689 186.567, 534.157 187.972 C 534.368 188.603, 545.249 199.383, 558.338 211.928 L 582.136 234.737 597.318 220.083 C 625.967 192.430, 629.947 188.851, 631.243 189.579 C 633.308 190.739, 623.243 180.530, 611.733 169.792 L 600.966 159.746 595.168 161.373 C 587.925 163.405, 575.866 163.470, 569.409 161.511 C 566.709 160.692, 563.924 160.017, 563.220 160.011 C 562.516 160.005, 557.116 164.451, 551.220 169.891 M 639.898 220.595 C 633.629 226.422, 622.804 236.434, 615.842 242.845 C 608.880 249.255, 603.255 254.800, 603.342 255.167 C 603.429 255.534, 623.525 275.539, 648 299.622 C 672.475 323.706, 692.650 343.768, 692.833 344.205 C 693.017 344.642, 620.822 345, 532.401 345 L 371.635 345 323.667 392.750 C 297.284 419.012, 265.125 451.177, 252.201 464.227 L 228.704 487.954 230.852 494.498 C 233.368 502.163, 233.611 510.669, 231.511 517.591 C 230.692 520.291, 230.017 523.003, 230.011 523.617 C 229.997 525.090, 257.809 550.500, 259.436 550.500 C 260.128 550.500, 271.122 540.305, 283.867 527.845 L 307.039 505.191 288.520 487.371 C 278.334 477.570, 270 469.063, 270 468.466 C 270 467.107, 290.343 447, 291.718 447 C 292.272 447, 299.425 453.372, 307.613 461.160 C 315.801 468.948, 324.197 476.924, 326.272 478.884 L 330.043 482.448 374.888 437.612 L 419.732 392.776 420.369 471.638 C 420.719 515.012, 421.263 584.475, 421.578 626 L 422.150 701.500 425.325 704.419 C 441.110 718.930, 498.554 771.454, 506.126 778.299 C 511.420 783.084, 516.073 787, 516.466 787 C 517.168 787, 524.531 780.104, 548.674 756.835 L 560.848 745.102 514.984 702.301 L 469.120 659.500 629.153 659.247 L 789.186 658.994 794.445 654.247 C 797.337 651.636, 818.714 631.500, 841.949 609.500 C 865.185 587.500, 894.164 560.136, 906.348 548.690 C 918.532 537.245, 929.338 527.058, 930.361 526.051 C 932.135 524.308, 932.147 523.920, 930.611 517.797 C 928.442 509.149, 928.579 502.900, 931.123 494.315 L 933.253 487.129 918.377 472.587 C 910.194 464.589, 903.325 458.035, 903.112 458.022 C 902.312 457.976, 892.922 466.863, 874.222 485.364 L 854.944 504.437 873.222 522.640 C 883.275 532.652, 891.500 541.227, 891.500 541.695 C 891.500 542.799, 870.537 563, 869.391 563 C 868.912 563, 860.338 554.827, 850.337 544.837 L 832.155 526.675 823.703 534.587 C 819.055 538.939, 799.052 558.362, 779.251 577.749 L 743.250 612.998 742.607 609.783 C 742.253 608.015, 742.008 537.028, 742.062 452.034 L 742.161 297.500 697.451 253.750 C 672.861 229.688, 652.417 210, 652.019 210 C 651.621 210, 646.167 214.768, 639.898 220.595 M 578.562 278.301 C 578.854 279.063, 572.031 286.223, 562.124 295.551 C 552.808 304.323, 545.144 311.837, 545.093 312.250 C 545.042 312.663, 560.788 313, 580.083 313 C 601.979 313, 615.041 312.640, 614.833 312.043 C 614.448 310.937, 579.327 277, 578.568 277 C 578.290 277, 578.288 277.586, 578.562 278.301 M 485.245 503.250 L 485.500 598.500 582.500 598.500 L 679.500 598.500 679.479 546 C 679.468 517.125, 679.355 474.262, 679.229 450.750 L 679 408 581.995 408 L 484.990 408 485.245 503.250 M 370.453 487.113 L 353.500 504.154 370.500 520.554 C 379.850 529.574, 387.855 536.964, 388.288 536.977 C 388.907 536.995, 388.194 471.124, 387.566 470.286 C 387.478 470.169, 379.777 477.741, 370.453 487.113 M 774.028 504 C 774.048 522.700, 774.392 538, 774.793 538 C 775.194 538, 783.162 530.350, 792.500 521 L 809.478 504 792.500 487 C 783.162 477.650, 775.178 470, 774.756 470 C 774.335 470, 774.007 485.300, 774.028 504 M 557.025 698.280 C 561.164 702.251, 568.936 709.502, 574.297 714.393 L 584.043 723.286 590.777 716.893 C 594.480 713.377, 602.132 706.112, 607.781 700.750 L 618.051 691 583.775 691.030 L 549.500 691.061 557.025 698.280 M 566.500 783.037 C 557.150 791.825, 547.311 801.282, 544.636 804.053 C 538.892 810.002, 537.787 807.880, 555.041 824.031 L 566.582 834.834 572.041 832.950 C 579.318 830.438, 590.015 830.438, 598.087 832.950 L 604.352 834.900 616.926 822.779 C 623.842 816.112, 629.626 810.357, 629.780 809.989 C 630.274 808.808, 585.864 766.959, 584.192 767.029 C 583.812 767.045, 575.850 774.249, 566.500 783.037" stroke="none" fill="#f1f0ea" fill-rule="evenodd"/></svg>