<svg version="1.1" id="Layer_1" xmlns="http://www.w3.org/2000/svg" xmlns:xlink="http://www.w3.org/1999/xlink" x="0px" y="0px"
	 width="100%" viewBox="0 0 968 893" enable-background="new 0 0 968 893" xml:space="preserve">
<path fill="#101014" opacity="1.000000" stroke="none" 
	d="
M1.000000,339.000000 
	C1.000000,226.000000 1.000000,113.500000 1.000000,1.000000 
	C323.666656,1.000000 646.333313,1.000000 969.000000,1.000000 
	C969.000000,298.666656 969.000000,596.333313 969.000000,894.000000 
	C646.333313,894.000000 323.666656,894.000000 1.000000,894.000000 
	C1.000000,709.166687 1.000000,524.333313 1.000000,339.000000 
M727.585632,771.084839 
	C751.423889,749.492065 775.322144,727.965027 799.084595,706.289185 
	C826.415039,681.358398 854.442810,657.119202 880.673950,631.075134 
	C911.095886,600.870300 902.773560,559.741028 863.507080,533.759338 
	C855.770142,540.950928 847.997192,548.176025 840.215027,555.409668 
	C846.489868,561.043701 852.635620,566.406494 858.601074,571.962891 
	C864.323425,577.292847 866.698486,583.995361 866.083069,591.794800 
	C865.472900,599.527649 861.865417,605.716675 856.277771,610.844543 
	C842.772522,623.238342 829.230896,635.592468 815.685242,647.942078 
	C766.181091,693.074707 716.729431,738.265137 667.126770,783.289246 
	C650.396301,798.475281 632.833435,798.114746 616.394897,782.845276 
	C589.779541,758.122864 563.136597,733.430115 536.580383,708.644348 
	C532.473633,704.811401 528.765991,700.550781 524.828430,696.440674 
	C525.017883,696.210754 525.289246,695.790588 525.645325,695.462524 
	C544.272644,678.301514 562.869324,661.106689 581.619080,644.080383 
	C582.990051,642.835388 585.472046,642.313599 587.441833,642.303711 
	C616.106445,642.159119 644.771851,642.159363 673.437012,642.125366 
	C675.012939,642.123535 676.588867,642.125183 679.074341,642.125183 
	C646.250183,672.127563 614.217468,701.406494 581.836914,731.003418 
	C589.957825,738.489563 597.500061,745.442261 605.079895,752.429565 
	C606.137878,751.570862 606.804749,751.083679 607.410828,750.529907 
	C651.701477,710.067261 696.186584,669.814575 740.218628,629.072327 
	C785.962952,586.745789 831.311462,543.990601 876.686646,501.267334 
	C880.371582,497.797729 883.361816,496.933014 888.416382,498.273926 
	C919.915161,506.630371 948.309204,482.464844 944.760986,450.696838 
	C941.881531,424.915833 915.520447,407.806213 889.269165,414.953461 
	C885.805115,415.896576 883.848450,415.217468 881.573792,412.801117 
	C877.236023,408.193024 872.582092,403.884094 868.107849,399.402557 
	C863.571594,394.858856 859.093933,390.256683 854.640869,385.731201 
	C864.963440,375.777832 874.971680,366.483154 884.571594,356.784271 
	C897.648987,343.572052 902.172974,327.319824 900.072510,309.130341 
	C898.254822,293.389160 889.550476,281.560822 878.395874,270.903809 
	C829.235535,223.936432 780.259949,176.775726 731.197388,129.705948 
	C716.646912,115.746445 702.326660,101.527954 687.371033,88.014496 
	C667.995483,70.507294 645.815979,66.559074 621.618774,76.880470 
	C607.200562,83.030602 597.134766,94.840736 587.047729,103.796417 
	C594.206848,111.861168 601.054077,119.574677 607.871765,127.254860 
	C614.844360,121.106987 621.120789,115.383598 627.606323,109.907806 
	C634.059937,104.458839 641.559082,102.687813 649.971313,103.775856 
	C657.633972,104.766953 662.971558,109.407562 668.175781,114.363358 
	C687.363892,132.635483 706.494751,150.967865 725.657776,169.266327 
	C769.769653,211.387955 813.880981,253.510208 858.007629,295.616302 
	C871.383423,308.379639 871.526917,325.258667 858.301392,338.203064 
	C856.991516,339.485168 855.644775,340.729553 854.321533,341.998138 
	C824.612183,370.482147 794.894714,398.957703 765.215088,427.472717 
	C763.226624,429.383118 761.526245,431.593323 758.332947,435.198120 
	C738.996399,415.101562 720.468384,395.945465 702.136536,376.603516 
	C700.665466,375.051453 699.904602,372.222046 699.894470,369.981354 
	C699.769958,342.483582 699.843201,314.984894 699.883057,287.486481 
	C699.885315,285.894379 700.040833,284.302490 700.186829,281.541656 
	C732.948303,313.245972 764.957214,344.222046 797.370911,375.589813 
	C804.622314,367.786865 811.699707,360.171204 819.775879,351.480743 
	C818.625427,350.681366 816.633911,349.658844 815.090515,348.171448 
	C785.812683,319.955353 756.645020,291.624878 727.339661,263.437439 
	C669.209778,207.525131 611.027161,151.667526 552.808533,95.847595 
	C547.820801,91.065331 544.125671,87.080093 545.992493,78.636810 
	C550.765991,57.047581 538.069763,36.954472 517.091858,30.298824 
	C496.339874,23.714861 473.588867,33.351604 464.223480,52.541046 
	C459.316101,62.596210 458.832520,72.963356 461.094513,83.719543 
	C461.410065,85.220062 461.130005,87.544151 460.156464,88.509109 
	C450.720032,97.862076 441.076599,107.006149 431.327576,116.367973 
	C429.756012,114.900482 428.681274,113.890045 427.599213,112.887497 
	C418.067139,104.055832 408.752350,94.973473 398.939209,86.465935 
	C389.156006,77.984337 377.697235,72.890053 364.603119,71.904846 
	C343.404907,70.309898 326.819672,79.289627 311.935760,93.582008 
	C273.111542,130.863220 233.889374,167.729782 194.868576,204.806595 
	C169.499329,228.911987 144.321533,253.220032 118.841080,277.206909 
	C97.242378,297.539551 97.468781,329.506836 108.945854,347.829132 
	C116.294777,359.561096 127.279152,367.756470 137.402710,377.931335 
	C145.063522,369.669739 152.288742,361.877869 159.659882,353.928650 
	C154.236496,348.845886 148.226532,343.560547 142.616577,337.880127 
	C132.407944,327.543152 131.582565,313.121613 140.376846,301.544617 
	C142.280869,299.038116 144.539871,296.769806 146.821686,294.586456 
	C180.655396,262.212677 214.443756,229.790894 248.401688,197.547760 
	C277.405151,170.008896 306.542053,142.609146 335.805206,115.346710 
	C340.112793,111.333603 345.015015,107.320480 350.389557,105.218254 
	C363.219482,100.199898 373.281036,105.856567 382.626709,114.825417 
	C411.961975,142.977875 441.648895,170.763809 471.179504,198.712936 
	C474.062317,201.441360 476.805969,204.316833 480.221161,207.730728 
	C479.339722,208.257706 478.533752,208.568695 477.946991,209.115097 
	C459.898773,225.922913 441.822327,242.701187 423.897186,259.639526 
	C421.299072,262.094666 418.806122,263.229584 415.164673,263.209381 
	C385.833710,263.046600 356.501495,263.103088 327.169678,263.092712 
	C325.923584,263.092285 324.677521,263.092682 322.291901,263.092682 
	C355.211823,232.048615 387.261353,201.825333 419.619385,171.311127 
	C411.932129,164.159378 404.400970,157.152832 396.849731,150.127609 
	C396.048920,150.764969 395.505371,151.134308 395.035156,151.580856 
	C333.648987,209.872009 272.238190,268.137299 210.899948,326.478790 
	C180.592728,355.305267 150.408752,384.261414 120.207664,413.199280 
	C117.896881,415.413452 115.932632,416.444244 112.344116,415.433716 
	C107.630020,414.106171 102.507530,413.667999 97.578339,413.763153 
	C77.394234,414.152832 60.749237,428.474945 56.403179,448.776611 
	C52.419098,467.387360 62.518719,487.995178 80.006943,496.275726 
	C91.184685,501.568329 102.793938,501.719330 114.568710,498.158997 
	C116.085587,497.700348 118.506729,497.376404 119.414261,498.198517 
	C128.889755,506.782166 138.141510,515.612793 147.358261,524.283752 
	C137.620239,533.517578 127.869110,542.355103 118.592751,551.665771 
	C107.547432,562.751770 101.677864,576.095459 102.035179,592.064697 
	C102.416885,609.123901 109.537682,622.924316 121.807808,634.231628 
	C141.168823,652.073425 160.653992,669.782104 180.203491,687.417542 
	C225.241302,728.045654 270.373230,768.569519 315.415588,809.192627 
	C330.361572,822.672180 347.849518,826.994080 367.613434,825.359497 
	C390.951111,823.429382 404.493683,806.599792 420.403320,792.675598 
	C412.210144,785.511230 404.364471,778.650818 396.000641,771.337219 
	C392.178986,775.373901 389.038940,779.655090 384.984741,782.731750 
	C379.781158,786.680725 374.235748,790.969910 368.143036,792.799500 
	C353.381775,797.232056 341.643982,790.942444 330.736237,780.880005 
	C289.952148,743.256592 248.784637,706.048889 207.766235,668.679382 
	C187.441559,650.162781 167.121140,631.641479 146.814819,613.104736 
	C141.162003,607.944519 136.794342,602.096741 135.772339,594.132507 
	C134.379181,583.275940 139.016663,575.300659 146.696121,568.186890 
	C168.453705,548.032043 189.977264,527.624756 211.632599,507.359222 
	C222.200226,497.469788 232.855942,487.674438 243.761841,477.567719 
	C263.285614,496.219330 282.720520,514.681335 301.948486,533.356506 
	C303.464508,534.828857 304.169159,537.776672 304.191467,540.049194 
	C304.456665,567.043518 304.523773,594.039917 304.626007,621.035767 
	C304.630585,622.242432 304.473755,623.449768 304.356781,625.178650 
	C270.902222,594.691345 237.949478,564.661316 204.593765,534.264038 
	C197.164093,542.270081 190.158829,549.818787 182.913071,557.626648 
	C185.441406,560.029602 188.495316,563.054138 191.676865,565.937866 
	C256.250183,624.466309 320.872162,682.941223 385.405334,741.513977 
	C409.094696,763.015442 432.557373,784.766541 456.192078,806.328552 
	C458.896118,808.795410 459.596039,810.907593 458.715027,814.824097 
	C457.468750,820.364441 456.954041,826.495972 457.958893,832.042847 
	C462.505066,857.137329 486.203094,871.850830 511.670654,865.963379 
	C534.876038,860.598816 548.632263,836.960022 542.599487,813.023010 
	C542.213928,811.493164 542.218933,809.031189 543.141724,808.134949 
	C551.822021,799.704590 560.741760,791.520752 569.813354,783.059631 
	C579.671448,792.090759 589.227478,800.620056 598.533081,809.414429 
	C621.965698,831.559631 662.699951,830.678589 684.368774,810.052368 
	C698.242981,796.845764 712.811462,784.368469 727.585632,771.084839 
z"/>
<path fill="#FCFCFC" opacity="1.000000" stroke="none" 
	d="
M727.327148,771.324524 
	C712.811462,784.368469 698.242981,796.845764 684.368774,810.052368 
	C662.699951,830.678589 621.965698,831.559631 598.533081,809.414429 
	C589.227478,800.620056 579.671448,792.090759 569.813354,783.059631 
	C560.741760,791.520752 551.822021,799.704590 543.141724,808.134949 
	C542.218933,809.031189 542.213928,811.493164 542.599487,813.023010 
	C548.632263,836.960022 534.876038,860.598816 511.670654,865.963379 
	C486.203094,871.850830 462.505066,857.137329 457.958893,832.042847 
	C456.954041,826.495972 457.468750,820.364441 458.715027,814.824097 
	C459.596039,810.907593 458.896118,808.795410 456.192078,806.328552 
	C432.557373,784.766541 409.094696,763.015442 385.405334,741.513977 
	C320.872162,682.941223 256.250183,624.466309 191.676865,565.937866 
	C188.495316,563.054138 185.441406,560.029602 182.913071,557.626648 
	C190.158829,549.818787 197.164093,542.270081 204.593765,534.264038 
	C237.949478,564.661316 270.902222,594.691345 304.356781,625.178650 
	C304.473755,623.449768 304.630585,622.242432 304.626007,621.035767 
	C304.523773,594.039917 304.456665,567.043518 304.191467,540.049194 
	C304.169159,537.776672 303.464508,534.828857 301.948486,533.356506 
	C282.720520,514.681335 263.285614,496.219330 243.761841,477.567719 
	C232.855942,487.674438 222.200226,497.469788 211.632599,507.359222 
	C189.977264,527.624756 168.453705,548.032043 146.696121,568.186890 
	C139.016663,575.300659 134.379181,583.275940 135.772339,594.132507 
	C136.794342,602.096741 141.162003,607.944519 146.814819,613.104736 
	C167.121140,631.641479 187.441559,650.162781 207.766235,668.679382 
	C248.784637,706.048889 289.952148,743.256592 330.736237,780.880005 
	C341.643982,790.942444 353.381775,797.232056 368.143036,792.799500 
	C374.235748,790.969910 379.781158,786.680725 384.984741,782.731750 
	C389.038940,779.655090 392.178986,775.373901 396.000641,771.337219 
	C404.364471,778.650818 412.210144,785.511230 420.403320,792.675598 
	C404.493683,806.599792 390.951111,823.429382 367.613434,825.359497 
	C347.849518,826.994080 330.361572,822.672180 315.415588,809.192627 
	C270.373230,768.569519 225.241302,728.045654 180.203491,687.417542 
	C160.653992,669.782104 141.168823,652.073425 121.807808,634.231628 
	C109.537682,622.924316 102.416885,609.123901 102.035179,592.064697 
	C101.677864,576.095459 107.547432,562.751770 118.592751,551.665771 
	C127.869110,542.355103 137.620239,533.517578 147.358261,524.283752 
	C138.141510,515.612793 128.889755,506.782166 119.414261,498.198517 
	C118.506729,497.376404 116.085587,497.700348 114.568710,498.158997 
	C102.793938,501.719330 91.184685,501.568329 80.006943,496.275726 
	C62.518719,487.995178 52.419098,467.387360 56.403179,448.776611 
	C60.749237,428.474945 77.394234,414.152832 97.578339,413.763153 
	C102.507530,413.667999 107.630020,414.106171 112.344116,415.433716 
	C115.932632,416.444244 117.896881,415.413452 120.207664,413.199280 
	C150.408752,384.261414 180.592728,355.305267 210.899948,326.478790 
	C272.238190,268.137299 333.648987,209.872009 395.035156,151.580856 
	C395.505371,151.134308 396.048920,150.764969 396.849731,150.127609 
	C404.400970,157.152832 411.932129,164.159378 419.619385,171.311127 
	C387.261353,201.825333 355.211823,232.048615 322.291901,263.092682 
	C324.677521,263.092682 325.923584,263.092285 327.169678,263.092712 
	C356.501495,263.103088 385.833710,263.046600 415.164673,263.209381 
	C418.806122,263.229584 421.299072,262.094666 423.897186,259.639526 
	C441.822327,242.701187 459.898773,225.922913 477.946991,209.115097 
	C478.533752,208.568695 479.339722,208.257706 480.221161,207.730728 
	C476.805969,204.316833 474.062317,201.441360 471.179504,198.712936 
	C441.648895,170.763809 411.961975,142.977875 382.626709,114.825417 
	C373.281036,105.856567 363.219482,100.199898 350.389557,105.218254 
	C345.015015,107.320480 340.112793,111.333603 335.805206,115.346710 
	C306.542053,142.609146 277.405151,170.008896 248.401688,197.547760 
	C214.443756,229.790894 180.655396,262.212677 146.821686,294.586456 
	C144.539871,296.769806 142.280869,299.038116 140.376846,301.544617 
	C131.582565,313.121613 132.407944,327.543152 142.616577,337.880127 
	C148.226532,343.560547 154.236496,348.845886 159.659882,353.928650 
	C152.288742,361.877869 145.063522,369.669739 137.402710,377.931335 
	C127.279152,367.756470 116.294777,359.561096 108.945854,347.829132 
	C97.468781,329.506836 97.242378,297.539551 118.841080,277.206909 
	C144.321533,253.220032 169.499329,228.911987 194.868576,204.806595 
	C233.889374,167.729782 273.111542,130.863220 311.935760,93.582008 
	C326.819672,79.289627 343.404907,70.309898 364.603119,71.904846 
	C377.697235,72.890053 389.156006,77.984337 398.939209,86.465935 
	C408.752350,94.973473 418.067139,104.055832 427.599213,112.887497 
	C428.681274,113.890045 429.756012,114.900482 431.327576,116.367973 
	C441.076599,107.006149 450.720032,97.862076 460.156464,88.509109 
	C461.130005,87.544151 461.410065,85.220062 461.094513,83.719543 
	C458.832520,72.963356 459.316101,62.596210 464.223480,52.541046 
	C473.588867,33.351604 496.339874,23.714861 517.091858,30.298824 
	C538.069763,36.954472 550.765991,57.047581 545.992493,78.636810 
	C544.125671,87.080093 547.820801,91.065331 552.808533,95.847595 
	C611.027161,151.667526 669.209778,207.525131 727.339661,263.437439 
	C756.645020,291.624878 785.812683,319.955353 815.090515,348.171448 
	C816.633911,349.658844 818.625427,350.681366 819.775879,351.480743 
	C811.699707,360.171204 804.622314,367.786865 797.370911,375.589813 
	C764.957214,344.222046 732.948303,313.245972 700.186829,281.541656 
	C700.040833,284.302490 699.885315,285.894379 699.883057,287.486481 
	C699.843201,314.984894 699.769958,342.483582 699.894470,369.981354 
	C699.904602,372.222046 700.665466,375.051453 702.136536,376.603516 
	C720.468384,395.945465 738.996399,415.101562 758.332947,435.198120 
	C761.526245,431.593323 763.226624,429.383118 765.215088,427.472717 
	C794.894714,398.957703 824.612183,370.482147 854.321533,341.998138 
	C855.644775,340.729553 856.991516,339.485168 858.301392,338.203064 
	C871.526917,325.258667 871.383423,308.379639 858.007629,295.616302 
	C813.880981,253.510208 769.769653,211.387955 725.657776,169.266327 
	C706.494751,150.967865 687.363892,132.635483 668.175781,114.363358 
	C662.971558,109.407562 657.633972,104.766953 649.971313,103.775856 
	C641.559082,102.687813 634.059937,104.458839 627.606323,109.907806 
	C621.120789,115.383598 614.844360,121.106987 607.871765,127.254860 
	C601.054077,119.574677 594.206848,111.861168 587.047729,103.796417 
	C597.134766,94.840736 607.200562,83.030602 621.618774,76.880470 
	C645.815979,66.559074 667.995483,70.507294 687.371033,88.014496 
	C702.326660,101.527954 716.646912,115.746445 731.197388,129.705948 
	C780.259949,176.775726 829.235535,223.936432 878.395874,270.903809 
	C889.550476,281.560822 898.254822,293.389160 900.072510,309.130341 
	C902.172974,327.319824 897.648987,343.572052 884.571594,356.784271 
	C874.971680,366.483154 864.963440,375.777832 854.640869,385.731201 
	C859.093933,390.256683 863.571594,394.858856 868.107849,399.402557 
	C872.582092,403.884094 877.236023,408.193024 881.573792,412.801117 
	C883.848450,415.217468 885.805115,415.896576 889.269165,414.953461 
	C915.520447,407.806213 941.881531,424.915833 944.760986,450.696838 
	C948.309204,482.464844 919.915161,506.630371 888.416382,498.273926 
	C883.361816,496.933014 880.371582,497.797729 876.686646,501.267334 
	C831.311462,543.990601 785.962952,586.745789 740.218628,629.072327 
	C696.186584,669.814575 651.701477,710.067261 607.410828,750.529907 
	C606.804749,751.083679 606.137878,751.570862 605.079895,752.429565 
	C597.500061,745.442261 589.957825,738.489563 581.836914,731.003418 
	C614.217468,701.406494 646.250183,672.127563 679.074341,642.125183 
	C676.588867,642.125183 675.012939,642.123535 673.437012,642.125366 
	C644.771851,642.159363 616.106445,642.159119 587.441833,642.303711 
	C585.472046,642.313599 582.990051,642.835388 581.619080,644.080383 
	C562.869324,661.106689 544.272644,678.301514 525.645325,695.462524 
	C525.289246,695.790588 525.017883,696.210754 524.828430,696.440674 
	C528.765991,700.550781 532.473633,704.811401 536.580383,708.644348 
	C563.136597,733.430115 589.779541,758.122864 616.394897,782.845276 
	C632.833435,798.114746 650.396301,798.475281 667.126770,783.289246 
	C716.729431,738.265137 766.181091,693.074707 815.685242,647.942078 
	C829.230896,635.592468 842.772522,623.238342 856.277771,610.844543 
	C861.865417,605.716675 865.472900,599.527649 866.083069,591.794800 
	C866.698486,583.995361 864.323425,577.292847 858.601074,571.962891 
	C852.635620,566.406494 846.489868,561.043701 840.215027,555.409668 
	C847.997192,548.176025 855.770142,540.950928 863.507080,533.759338 
	C902.773560,559.741028 911.095886,600.870300 880.673950,631.075134 
	C854.442810,657.119202 826.415039,681.358398 799.084595,706.289185 
	C775.322144,727.965027 751.423889,749.492065 727.327148,771.324524 
M760.524353,478.712250 
	C759.012634,479.076385 757.115051,478.986115 756.057251,479.884644 
	C751.870850,483.440521 747.923096,487.280273 743.930725,491.061157 
	C718.706116,514.949158 693.493164,538.849609 667.650391,563.339111 
	C667.650391,561.535156 667.651978,560.452820 667.650146,559.370483 
	C667.480957,457.385071 667.330383,355.399597 667.021729,253.414597 
	C667.014771,251.117828 665.801147,248.222443 664.159424,246.624207 
	C643.146362,226.167419 621.955933,205.892822 600.802246,185.580566 
	C592.161621,177.283630 583.501038,169.007385 574.752808,160.629150 
	C558.467285,176.274307 542.522400,191.592255 526.206848,207.266251 
	C556.370850,236.417221 586.288818,265.330475 617.010315,295.020264 
	C614.324951,295.020264 613.016052,295.020294 611.707153,295.020203 
	C505.721375,295.015167 399.735596,295.022369 293.749847,294.946045 
	C290.551605,294.943756 288.234711,295.723907 285.856232,298.019684 
	C256.003296,326.834290 225.999222,355.492188 196.097366,384.256256 
	C177.370468,402.270569 158.750839,420.396423 139.979889,438.572174 
	C145.268448,449.587006 144.709061,460.684479 142.033691,471.946289 
	C141.720398,473.265076 142.100052,475.398041 143.007294,476.256805 
	C152.151520,484.912506 161.472946,493.381012 170.774094,501.929291 
	C187.413681,486.226715 203.703766,470.853973 220.196411,455.290070 
	C207.225204,443.279388 194.562057,431.553955 183.567886,421.373871 
	C190.588272,413.195404 197.263672,405.418823 204.149658,397.396942 
	C217.707413,409.883942 230.421661,421.594025 243.362595,433.512878 
	C274.364014,403.844666 305.262177,374.275269 336.944489,343.955444 
	C336.944489,446.824951 336.966949,548.144165 336.861755,649.463379 
	C336.857605,653.489746 338.089722,656.145325 341.081726,658.828430 
	C368.371735,683.301270 395.515594,707.937073 422.694336,732.533813 
	C425.478851,735.053833 428.212555,737.629944 431.134003,740.331787 
	C446.714478,725.890015 461.978912,711.741150 477.620361,697.242798 
	C446.693054,668.497437 415.910004,639.886108 384.350586,610.553223 
	C386.985992,610.553223 388.593048,610.552917 390.200134,610.553284 
	C439.526703,610.564697 488.853241,610.561218 538.179810,610.591614 
	C594.672119,610.626465 651.164429,610.720154 707.656555,610.651672 
	C710.273987,610.648560 713.617004,610.105835 715.398376,608.476501 
	C746.626465,579.913696 777.683655,551.163757 808.733948,522.406921 
	C825.235291,507.124451 841.606262,491.700806 858.167847,476.484314 
	C860.184631,474.631287 860.172607,473.284698 859.341492,470.946228 
	C855.695984,460.689362 855.647949,450.448975 859.750977,440.199432 
	C860.292297,438.847229 859.765015,436.248322 858.738098,435.215485 
	C849.597046,426.020996 840.232117,417.049042 830.774536,407.857361 
	C814.452209,423.781006 798.320251,439.519043 782.989136,454.475708 
	C795.049133,467.402893 806.615662,479.801086 817.014893,490.948029 
	C810.724121,498.231598 803.983154,506.036438 797.030945,514.085815 
	C784.492615,501.906128 772.793945,490.542114 760.524353,478.712250 
M533.432129,155.932419 
	C539.595032,150.184814 545.757874,144.437225 552.192444,138.436249 
	C542.662964,129.413452 533.542603,120.665932 524.236267,112.120979 
	C523.177612,111.148911 520.818481,110.594452 519.496582,111.065331 
	C508.694611,114.913086 498.037689,114.926323 487.284027,110.905769 
	C486.023529,110.434509 483.796570,110.621803 482.879883,111.453812 
	C473.169128,120.267540 463.633209,129.273880 453.787933,138.471161 
	C470.242310,154.172653 486.333984,169.528046 502.533325,184.986160 
	C512.801392,175.326157 522.854858,165.868027 533.432129,155.932419 
M494.341095,724.797302 
	C481.160217,736.966980 467.979340,749.136597 454.510590,761.572021 
	C463.352814,769.907166 471.754211,777.916992 480.324432,785.741943 
	C481.046478,786.401245 483.079224,786.234741 484.201477,785.751526 
	C495.367401,780.943176 506.455292,781.119019 517.606873,785.774963 
	C518.637939,786.205566 520.461670,786.454712 521.086365,785.881897 
	C529.608215,778.066345 537.983582,770.091003 546.593750,761.967407 
	C531.117737,747.497864 515.959900,733.325806 500.720703,719.077637 
	C498.577301,720.992493 496.721924,722.650085 494.341095,724.797302 
M304.585388,423.997559 
	C304.585388,422.747345 304.585388,421.497101 304.585388,419.107910 
	C291.456116,431.698761 279.154663,443.495758 266.524506,455.607971 
	C279.244965,467.380310 291.564575,478.781708 304.585052,490.831726 
	C304.585052,468.141602 304.585052,446.516205 304.585388,423.997559 
M699.621338,468.673584 
	C699.621338,475.081238 699.621338,481.488861 699.621338,489.069641 
	C712.121521,477.024048 723.669922,465.895630 733.982361,455.958252 
	C722.744812,443.773438 711.672119,431.767395 699.617004,418.696136 
	C699.617004,436.188324 699.617004,451.953308 699.621338,468.673584 
M517.306946,660.805115 
	C523.683472,654.862305 530.059998,648.919495 536.950806,642.497375 
	C512.744141,642.497375 489.478760,642.497375 465.102234,642.497375 
	C477.390167,653.952942 488.910431,664.692810 500.813568,675.789612 
	C506.248932,670.846619 511.512024,666.060303 517.306946,660.805115 
M529.383789,263.061096 
	C531.927856,263.061096 534.471924,263.061096 538.233704,263.061096 
	C525.713318,251.014771 514.239563,239.975418 502.587555,228.764618 
	C490.667145,240.132477 478.904663,251.349686 466.622650,263.062378 
	C487.821716,263.062378 508.119843,263.062378 529.383789,263.061096 
M114.783615,446.874481 
	C108.475563,439.750977 99.869469,437.504883 92.408813,441.034851 
	C85.411324,444.345673 81.235901,451.976196 82.435303,459.510315 
	C83.555328,466.545776 87.413315,471.594055 94.310204,473.528412 
	C101.715942,475.605530 108.609177,474.439301 113.719154,468.030823 
	C118.862694,461.580322 119.039978,454.665894 114.783615,446.874481 
M909.312317,472.102173 
	C910.147522,471.564514 911.041138,471.099030 911.808777,470.477844 
	C918.242249,465.272064 920.350037,456.894226 917.147339,449.397827 
	C914.194763,442.486725 906.542175,438.223694 898.887024,439.225647 
	C890.544373,440.317535 884.618103,446.131104 883.415344,454.403381 
	C881.430176,468.056610 894.593079,477.494843 909.312317,472.102173 
M509.295258,54.814751 
	C501.512054,52.444767 494.830750,54.322834 489.519867,60.387180 
	C485.087799,65.448051 484.253754,71.346687 486.815948,77.559776 
	C489.815369,84.833054 497.556091,89.454170 505.097839,88.687294 
	C513.168152,87.866676 519.449463,82.126472 520.805542,74.332771 
	C522.220032,66.203392 518.406372,59.351925 509.295258,54.814751 
M497.294861,807.451965 
	C488.445923,810.218079 483.411285,816.316772 483.161804,824.572021 
	C482.950195,831.572998 487.886261,838.440796 494.877899,840.873169 
	C501.962646,843.337952 509.404602,841.570557 514.052979,836.319580 
	C518.488464,831.308838 519.525085,823.397095 516.562012,817.168945 
	C513.306885,810.326904 506.670959,806.761536 497.294861,807.451965 
z"/>
<path fill="#101014" opacity="1.000000" stroke="none" 
	d="
M760.809814,478.945190 
	C772.793945,490.542114 784.492615,501.906128 797.030945,514.085815 
	C803.983154,506.036438 810.724121,498.231598 817.014893,490.948029 
	C806.615662,479.801086 795.049133,467.402893 782.989136,454.475708 
	C798.320251,439.519043 814.452209,423.781006 830.774536,407.857361 
	C840.232117,417.049042 849.597046,426.020996 858.738098,435.215485 
	C859.765015,436.248322 860.292297,438.847229 859.750977,440.199432 
	C855.647949,450.448975 855.695984,460.689362 859.341492,470.946228 
	C860.172607,473.284698 860.184631,474.631287 858.167847,476.484314 
	C841.606262,491.700806 825.235291,507.124451 808.733948,522.406921 
	C777.683655,551.163757 746.626465,579.913696 715.398376,608.476501 
	C713.617004,610.105835 710.273987,610.648560 707.656555,610.651672 
	C651.164429,610.720154 594.672119,610.626465 538.179810,610.591614 
	C488.853241,610.561218 439.526703,610.564697 390.200134,610.553284 
	C388.593048,610.552917 386.985992,610.553223 384.350586,610.553223 
	C415.910004,639.886108 446.693054,668.497437 477.620361,697.242798 
	C461.978912,711.741150 446.714478,725.890015 431.134003,740.331787 
	C428.212555,737.629944 425.478851,735.053833 422.694336,732.533813 
	C395.515594,707.937073 368.371735,683.301270 341.081726,658.828430 
	C338.089722,656.145325 336.857605,653.489746 336.861755,649.463379 
	C336.966949,548.144165 336.944489,446.824951 336.944489,343.955444 
	C305.262177,374.275269 274.364014,403.844666 243.362595,433.512878 
	C230.421661,421.594025 217.707413,409.883942 204.149658,397.396942 
	C197.263672,405.418823 190.588272,413.195404 183.567886,421.373871 
	C194.562057,431.553955 207.225204,443.279388 220.196411,455.290070 
	C203.703766,470.853973 187.413681,486.226715 170.774094,501.929291 
	C161.472946,493.381012 152.151520,484.912506 143.007294,476.256805 
	C142.100052,475.398041 141.720398,473.265076 142.033691,471.946289 
	C144.709061,460.684479 145.268448,449.587006 139.979889,438.572174 
	C158.750839,420.396423 177.370468,402.270569 196.097366,384.256256 
	C225.999222,355.492188 256.003296,326.834290 285.856232,298.019684 
	C288.234711,295.723907 290.551605,294.943756 293.749847,294.946045 
	C399.735596,295.022369 505.721375,295.015167 611.707153,295.020203 
	C613.016052,295.020294 614.324951,295.020264 617.010315,295.020264 
	C586.288818,265.330475 556.370850,236.417221 526.206848,207.266251 
	C542.522400,191.592255 558.467285,176.274307 574.752808,160.629150 
	C583.501038,169.007385 592.161621,177.283630 600.802246,185.580566 
	C621.955933,205.892822 643.146362,226.167419 664.159424,246.624207 
	C665.801147,248.222443 667.014771,251.117828 667.021729,253.414597 
	C667.330383,355.399597 667.480957,457.385071 667.650146,559.370483 
	C667.651978,560.452820 667.650391,561.535156 667.650391,563.339111 
	C693.493164,538.849609 718.706116,514.949158 743.930725,491.061157 
	C747.923096,487.280273 751.870850,483.440521 756.057251,479.884644 
	C757.115051,478.986115 759.012634,479.076385 760.809814,478.945190 
M465.500092,358.803772 
	C444.749115,358.803772 423.998108,358.803772 403.251892,358.803772 
	C403.251892,422.324707 403.251892,485.207947 403.251892,548.215698 
	C470.283356,548.215698 537.030090,548.215698 603.722778,548.215698 
	C603.722778,485.125092 603.722778,422.241058 603.722778,358.803009 
	C557.700134,358.803009 512.100159,358.803009 465.500092,358.803772 
z"/>
<path fill="#111015" opacity="1.000000" stroke="none" 
	d="
M533.170227,156.171173 
	C522.854858,165.868027 512.801392,175.326157 502.533325,184.986160 
	C486.333984,169.528046 470.242310,154.172653 453.787933,138.471161 
	C463.633209,129.273880 473.169128,120.267540 482.879883,111.453812 
	C483.796570,110.621803 486.023529,110.434509 487.284027,110.905769 
	C498.037689,114.926323 508.694611,114.913086 519.496582,111.065331 
	C520.818481,110.594452 523.177612,111.148911 524.236267,112.120979 
	C533.542603,120.665932 542.662964,129.413452 552.192444,138.436249 
	C545.757874,144.437225 539.595032,150.184814 533.170227,156.171173 
z"/>
<path fill="#101014" opacity="1.000000" stroke="none" 
	d="
M494.603821,724.552490 
	C496.721924,722.650085 498.577301,720.992493 500.720703,719.077637 
	C515.959900,733.325806 531.117737,747.497864 546.593750,761.967407 
	C537.983582,770.091003 529.608215,778.066345 521.086365,785.881897 
	C520.461670,786.454712 518.637939,786.205566 517.606873,785.774963 
	C506.455292,781.119019 495.367401,780.943176 484.201477,785.751526 
	C483.079224,786.234741 481.046478,786.401245 480.324432,785.741943 
	C471.754211,777.916992 463.352814,769.907166 454.510590,761.572021 
	C467.979340,749.136597 481.160217,736.966980 494.603821,724.552490 
z"/>
<path fill="#16161A" opacity="1.000000" stroke="none" 
	d="
M304.585205,424.444183 
	C304.585052,446.516205 304.585052,468.141602 304.585052,490.831726 
	C291.564575,478.781708 279.244965,467.380310 266.524506,455.607971 
	C279.154663,443.495758 291.456116,431.698761 304.585388,419.107910 
	C304.585388,421.497101 304.585388,422.747345 304.585205,424.444183 
z"/>
<path fill="#121216" opacity="1.000000" stroke="none" 
	d="
M699.619141,468.195923 
	C699.617004,451.953308 699.617004,436.188324 699.617004,418.696136 
	C711.672119,431.767395 722.744812,443.773438 733.982361,455.958252 
	C723.669922,465.895630 712.121521,477.024048 699.621338,489.069641 
	C699.621338,481.488861 699.621338,475.081238 699.619141,468.195923 
z"/>
<path fill="#141318" opacity="1.000000" stroke="none" 
	d="
M517.041016,661.039551 
	C511.512024,666.060303 506.248932,670.846619 500.813568,675.789612 
	C488.910431,664.692810 477.390167,653.952942 465.102234,642.497375 
	C489.478760,642.497375 512.744141,642.497375 536.950806,642.497375 
	C530.059998,648.919495 523.683472,654.862305 517.041016,661.039551 
z"/>
<path fill="#141418" opacity="1.000000" stroke="none" 
	d="
M528.900879,263.061737 
	C508.119843,263.062378 487.821716,263.062378 466.622650,263.062378 
	C478.904663,251.349686 490.667145,240.132477 502.587555,228.764618 
	C514.239563,239.975418 525.713318,251.014771 538.233704,263.061096 
	C534.471924,263.061096 531.927856,263.061096 528.900879,263.061737 
z"/>
<path fill="#111115" opacity="1.000000" stroke="none" 
	d="
M114.972717,447.198700 
	C119.039978,454.665894 118.862694,461.580322 113.719154,468.030823 
	C108.609177,474.439301 101.715942,475.605530 94.310204,473.528412 
	C87.413315,471.594055 83.555328,466.545776 82.435303,459.510315 
	C81.235901,451.976196 85.411324,444.345673 92.408813,441.034851 
	C99.869469,437.504883 108.475563,439.750977 114.972717,447.198700 
z"/>
<path fill="#131217" opacity="1.000000" stroke="none" 
	d="
M908.978149,472.297668 
	C894.593079,477.494843 881.430176,468.056610 883.415344,454.403381 
	C884.618103,446.131104 890.544373,440.317535 898.887024,439.225647 
	C906.542175,438.223694 914.194763,442.486725 917.147339,449.397827 
	C920.350037,456.894226 918.242249,465.272064 911.808777,470.477844 
	C911.041138,471.099030 910.147522,471.564514 908.978149,472.297668 
z"/>
<path fill="#111115" opacity="1.000000" stroke="none" 
	d="
M509.680878,54.927116 
	C518.406372,59.351925 522.220032,66.203392 520.805542,74.332771 
	C519.449463,82.126472 513.168152,87.866676 505.097839,88.687294 
	C497.556091,89.454170 489.815369,84.833054 486.815948,77.559776 
	C484.253754,71.346687 485.087799,65.448051 489.519867,60.387180 
	C494.830750,54.322834 501.512054,52.444767 509.680878,54.927116 
z"/>
<path fill="#121115" opacity="1.000000" stroke="none" 
	d="
M497.695038,807.349426 
	C506.670959,806.761536 513.306885,810.326904 516.562012,817.168945 
	C519.525085,823.397095 518.488464,831.308838 514.052979,836.319580 
	C509.404602,841.570557 501.962646,843.337952 494.877899,840.873169 
	C487.886261,838.440796 482.950195,831.572998 483.161804,824.572021 
	C483.411285,816.316772 488.445923,810.218079 497.695038,807.349426 
z"/>
<path fill="#FEFEFE" opacity="1.000000" stroke="none" 
	d="
M466.000122,358.803406 
	C512.100159,358.803009 557.700134,358.803009 603.722778,358.803009 
	C603.722778,422.241058 603.722778,485.125092 603.722778,548.215698 
	C537.030090,548.215698 470.283356,548.215698 403.251892,548.215698 
	C403.251892,485.207947 403.251892,422.324707 403.251892,358.803772 
	C423.998108,358.803772 444.749115,358.803772 466.000122,358.803406 
z"/>
</svg>